<svg id="Layer_1" data-name="Layer 1" xmlns="http://www.w3.org/2000/svg" viewBox="0 0 98.09 75"><defs><style>.cls-1{fill:#fdfefe;}.cls-2{fill:#bbcdce;}.cls-3{fill:#5a858a;}.cls-4{fill:#145359;}</style></defs><path class="cls-1" d="M40.54,116.61V70.55h98.09v75H40.54V121.91a3.44,3.44,0,0,0,.68.47,7.62,7.62,0,0,0,1.16.31l.4,0c.65.91,1.51.26,1.91,0,.69-.53,1-1,2.16-.84,1.45.16,3-.64,3.91.6a18.24,18.24,0,0,1,2.35-.53c.77-.07,1.09-.4,1.08-1.15,0-1.19.23-2.44-.9-3.41l.27-.23,1.3.51,0,1-.12.39.54.13a2.76,2.76,0,0,1,.31.87c0,1,.39,1.59,1.43,1.66.92.32,1.24.15,1.18-.61l.1-.38a1.67,1.67,0,0,0,.34-.31c.67-1.1,1.36-1.39,2.43-1,.09,0,.13,0,.15-.1l.22,1.87c.55.63.79.57,1.08-.26l.06-2.66,0-1c.1-.58.36-1.21-.37-1.59-.59-.92.4-1.12.77-1.52s1-.73,1.52-.13l.31,1.78c.37.15.74.32,1.12.44s.71.13,1.06.2l0,.29c-.25.14-.5.42-.73.4-.91-.05-1.35.57-1.94,1.07a2,2,0,0,0,1.52,3.33c.86-.13,1.74-.16,2.61-.23l.25.16c.14.66.46,1.15,1.21,1a16.35,16.35,0,0,0,2-.59c.14,0,.22-.26.33-.39h0l.24-.37,0-2.64-.21-.37-.36-.26c-.35-.38-.64-.89-1.08-1.1a1.39,1.39,0,0,0-2,.6,5,5,0,0,1-.59.88,4.16,4.16,0,0,1-.39-1.14,3.22,3.22,0,0,1,.3-1,5.55,5.55,0,0,0,.48-1.57q0-17.06,0-34.1c0-2.36-.41-2.76-2.78-2.67a7,7,0,0,0-.9.14c-1.5.26-1.69.45-1.65,2,.1,3.61.26,7.23.32,10.84,0,.32-.51.64-.78,1l-.15-.06a4.7,4.7,0,0,0-.77-1c-.42-.31-1-.38-1.4-.72-1.22-1.08-2.57-.8-4-.55h-.41c-2.19-.87-3.9.44-5.66,1.34a9.26,9.26,0,0,0-1.83,1.49,15.42,15.42,0,0,0-1.68,1.65,16,16,0,0,0-1.37,2.06,16.73,16.73,0,0,0-.78,1.66,2,2,0,0,0-.27.74q0,5.12,0,10.25a1.17,1.17,0,0,0,.16.57c.65,1.11,1.3,2.23,2,3.32a6.89,6.89,0,0,0,1.41,1.79c1.18.89,2.48,1.62,3.55,2.29l-2.21,1a4.92,4.92,0,0,0-.09-1.13,1,1,0,0,0-.54-.65,1.09,1.09,0,0,0-.8.24c-.87.59-1.7,1.22-2.59,1.87a2.72,2.72,0,0,0-.31-.64c-.54-.59-1-1.37-1.7-1.67a1.67,1.67,0,0,0-2.12.74C41.26,116.45,40.83,116.49,40.54,116.61Zm35.21,3.11c0-1,.1-2.09,0-3.12,0-.26-.42-.5-.64-.75l-1.51-.36a10.52,10.52,0,0,0-1.38.57,1,1,0,0,0,.21.75c.93.63.93,1.54.92,2.51a5.81,5.81,0,0,0,.21,1.6A2.49,2.49,0,0,0,76,122.49c.81-.16,1.06-.81,1.15-1.49.06-.52-.18-.93-.84-.83Zm2.93-6.79.26.41c-.24.7.87,1.78,1.68,1.65l.35.14c.29.93.52,1.08,1.17.78l.61.09-.59,1.29a7.15,7.15,0,0,0-2-.68,1.29,1.29,0,0,0-1.57,1,.53.53,0,0,1-.3.25,1.09,1.09,0,0,0-.78,1.45,4.66,4.66,0,0,0,.94,2.16,7,7,0,0,0,2.24,1.24c.12.06.4-.27.63-.38a3.53,3.53,0,0,1,1.17-.43c1.34,0,2.69.06,4-.06a1.29,1.29,0,0,1,1.39.49c.13.18.76.28.85.17.51-.64,1.18-.55,1.86-.57s1.34-.11,2-.18.89-.59.88-1.23c0-.31,0-.63.08-.94h.34a8.66,8.66,0,0,0,.08,1.35c.08.32.35.9.48.88a12,12,0,0,1,3.17.17c.43.06.91-.22,1.37-.24.72,0,1-.37,1-1.08,0-1.16,0-2.31,0-3.47,0-.31.19-.82.41-.9.75-.26.82-.78.82-1.44,0-5.5-.07-11,0-16.5,0-1.64-1-2.84-1.28-4.31a.59.59,0,0,0-.18-.24A20.36,20.36,0,0,0,97,90.89a9.45,9.45,0,0,0-3.84-1.7,24,24,0,0,0-6.1,0,18.53,18.53,0,0,0-4.55,1.34c-1.06.42-2,1.28-3,1.69s-1.25,1.08-.83,2a11,11,0,0,0,1.38,2.18,1.12,1.12,0,0,0,1,.15A13.41,13.41,0,0,0,84.35,95a4.38,4.38,0,0,1,2.73-.85c1.56,0,3.12,0,4.68,0a2.88,2.88,0,0,1,1.89.77c1.32,1,1.64,2.34,1.92,4l-1.87.21a7.11,7.11,0,0,0-2.49.28,11.06,11.06,0,0,1-3.81.8,33.41,33.41,0,0,0-4.64,1.31c-.14,0-.24.24-.38.33s-.58.34-.85.52a14.12,14.12,0,0,0-2.59,1.78,8.7,8.7,0,0,0-1.83,4.79c-.06.36.33.8.51,1.21l.07.59C77.25,111.88,77.54,112.53,78.68,112.93Zm42.15,8.53h0a6,6,0,0,0,.42-1.24c.07-.61.07-1.1.94-.88a1.09,1.09,0,0,0,.86-.47c.2-.28.1-.76.29-1s.56-.41.86-.61c.16.27.44.54.45.81,0,.81,0,1.62-.09,2.43s.06,1.43,1.09,1.45,1.21-.6,1.12-1.4c-.11-1,.27-1.4,1.26-1.26a5.61,5.61,0,0,0,.82,0c1.36,0,1.36,0,1.43,1.39,0,.64.11,1.28,1,1.25s1-.54,1-1.24c0-1.38.05-2.77,0-4.14,0-.38-.4-1-.67-1s-.83.32-1.21.56c-.22.14-.35.54-.54.54-1,.06-2.09,0-3.36,0,1.2-.5,2.14-.85,3-1.28s1.82-1,2.72-1.47,1.32-1.88.76-2.49a4.65,4.65,0,0,1-.9-1.37c-.33-.75-.83-1-1.49-.73-1.41.61-2.46,1.93-4.11,2a.4.4,0,0,0-.27.14,2.54,2.54,0,0,1-2.24.71c-.81,0-1.63-.05-2.44,0-1.71.12-2.9-1-4.27-1.7a3.92,3.92,0,0,1-1.92-2.06c-.48-1.17-1.37-2.23-1.61-3.43-.35-1.7-.78-3.56.66-5.11a.79.79,0,0,0,.13-.47c0-1.36,1-2.2,1.83-3,.55-.54,1.47-.72,2-1.28a3.49,3.49,0,0,1,3-.9,20.43,20.43,0,0,0,2.35,0,6.42,6.42,0,0,1,5.11,1.91,1.42,1.42,0,0,0,2.22-.32,4.07,4.07,0,0,1,.75-.8c.67-.59.94-1.84.41-2.36a9.43,9.43,0,0,0-1.74-1.33,25,25,0,0,1-2.81-1.48c-1.39-1.07-2.83-.68-4.3-.45h-1.42a17.7,17.7,0,0,0-3.93.1,12.87,12.87,0,0,0-3.27,1.73,16.1,16.1,0,0,0-2.49,1.66,13.75,13.75,0,0,0-3,4.07,7.1,7.1,0,0,0-1,3.6c0,.83.19,1.7-.51,2.4-.11.11,0,.5.1.74s.38.61.39.92c0,1.64-.06,3.27,1,4.72.67.9.95,2.14,1.7,2.93,1.81,1.92,3.77,3.71,6.58,4.07.16,0,.31.19.43.27-.71,1-1.49.51-2.37.36-1.76-.29-3.68-1.05-5.33.81-.13-1.36-1.09-1.09-1.92-1.1-.38,0-.83-.12-1.11,0a3.42,3.42,0,0,1-3.43,0c-.9-.41-1.61.21-2.33,1a2.47,2.47,0,0,0-.71,2.37,2.24,2.24,0,0,0,1.68,1.87,1.54,1.54,0,0,1,.72.46c.47.52.76.38,1.24-.07a2.25,2.25,0,0,1,1.63-.7c1.89.41,1.87.48,2-1.37,0-.1,0-.24,0-.3.23-.24.49-.62.74-.62s.5.39.67.66a6.7,6.7,0,0,0,.77,1.34,9.68,9.68,0,0,0,2.06,1.33c.18.09.65-.2.87-.43a1.4,1.4,0,0,1,2.13-.08c.19.19.35.39.53.59v-.3l4-.85.71.08.27.17Zm14.74,1c1.26-.71,2.32-1.43,2-3,0-.06,0-.13,0-.2a2.33,2.33,0,0,0-2.17-2.47c-1-.08-1.33.64-1.85,1.18a1.92,1.92,0,0,0-.23,2.88A12.17,12.17,0,0,0,135.57,122.41Z" transform="translate(-40.54 -70.55)"/><path class="cls-2" d="M54.86,117.63l-1.3-.51-.27.23c1.13,1,.87,2.22.9,3.41,0,.75-.31,1.08-1.08,1.15a18.24,18.24,0,0,0-2.35.53c-.91-1.24-2.46-.44-3.91-.6-1.19-.14-1.47.31-2.16.84-.4.31-1.26,1-1.91,0a2,2,0,0,1,.39-.13c.95-.14,2.06-.12,1.45-1.64a.32.32,0,0,1,.09-.28c1-1,.44-2.22.21-3.28a1.76,1.76,0,0,0-3-.84,5.37,5.37,0,0,1-1.36.66v-.61c.29-.12.72-.16.86-.38a1.67,1.67,0,0,1,2.12-.74c.68.3,1.16,1.08,1.7,1.67a2.72,2.72,0,0,1,.31.64c.89-.65,1.72-1.28,2.59-1.87a1.09,1.09,0,0,1,.8-.24,1,1,0,0,1,.54.65,4.92,4.92,0,0,1,.09,1.13l2.21-1c-1.07-.67-2.37-1.4-3.55-2.29a6.89,6.89,0,0,1-1.41-1.79c-.7-1.09-1.35-2.21-2-3.32a1.17,1.17,0,0,1-.16-.57q0-5.13,0-10.25a2,2,0,0,1,.27-.74,16.73,16.73,0,0,1,.78-1.66,16,16,0,0,1,1.37-2.06,15.42,15.42,0,0,1,1.68-1.65,9.26,9.26,0,0,1,1.83-1.49c1.76-.9,3.47-2.21,5.66-1.34a21.11,21.11,0,0,0-4,1.17,16.33,16.33,0,0,0-4,2.79,12.71,12.71,0,0,0-3,5.52,8.47,8.47,0,0,0-.15,2c0,1.62,0,3.25,0,4.87-.07.17-.22.35-.2.51a13.21,13.21,0,0,0,2.47,6.29,9.47,9.47,0,0,0,8.31,4c1,0,2.07-.22,3.1-.33l.18.9c-.26.26-.62.47-.77.79-.33.72-.78.92-1.41.46-.47-.35-.87-.78-1.34-1.21Zm-1,2.1c.28-1.1-.56-1.84-1.38-2.47a2.09,2.09,0,0,0-1.51-.06c-.15,0-.13.67-.25,1s-.36.68-.46,1c-.16.55-.5,1.27-.29,1.65s1,.47,1.56.63a3.18,3.18,0,0,0,.8-.06C53.72,121.47,53.85,121.34,53.83,119.73Zm-6.53.66a4.08,4.08,0,0,0,.73-1c0-.12-.46-.55-.63-.51a3.24,3.24,0,0,0-.92.62Z" transform="translate(-40.54 -70.55)"/><path class="cls-3" d="M40.54,117.22a5.37,5.37,0,0,0,1.36-.66,1.76,1.76,0,0,1,3,.84c.23,1.06.75,2.25-.21,3.28a.32.32,0,0,0-.09.28c.61,1.52-.5,1.5-1.45,1.64a2,2,0,0,0-.39.13l-.4,0,0-.29,2-.65c-1-1-2.27-.79-2.58.36l-1.21-.61v-.82c.81.18,1.08-.46,1-1s.08-1.52-1-1.47Zm3.76.2c-1.38,1.22-1.39,1.31-.13,2.78A2.45,2.45,0,0,0,44.3,117.42Z" transform="translate(-40.54 -70.55)"/><path class="cls-4" d="M40.54,118.24c1.1,0,1,.9,1,1.47s-.21,1.15-1,1Z" transform="translate(-40.54 -70.55)"/><path class="cls-2" d="M40.54,121.5l1.21.61.59.29,0,.29a7.62,7.62,0,0,1-1.16-.31,3.44,3.44,0,0,1-.68-.47Z" transform="translate(-40.54 -70.55)"/><path class="cls-2" d="M77.62,110.11c-.18-.41-.57-.85-.51-1.21a8.7,8.7,0,0,1,1.83-4.79,14.12,14.12,0,0,1,2.59-1.78c.27-.18.58-.33.85-.52s.24-.29.38-.33a33.41,33.41,0,0,1,4.64-1.31,11.06,11.06,0,0,0,3.81-.8,7.11,7.11,0,0,1,2.49-.28l1.87-.21c-.28-1.62-.6-3-1.92-4a2.88,2.88,0,0,0-1.89-.77c-1.56.06-3.12,0-4.68,0a4.38,4.38,0,0,0-2.73.85,13.41,13.41,0,0,1-3.24,1.47,1.12,1.12,0,0,1-1-.15,11,11,0,0,1-1.38-2.18c-.42-.88-.28-1.53.83-2s1.95-1.27,3-1.69a18.53,18.53,0,0,1,4.55-1.34,24,24,0,0,1,6.1,0A9.45,9.45,0,0,1,97,90.89a20.36,20.36,0,0,1,2.85,2.87.59.59,0,0,1,.18.24c.3,1.47,1.3,2.67,1.28,4.31-.1,5.5,0,11,0,16.5,0,.66-.07,1.18-.82,1.44-.22.08-.4.59-.41.9,0,1.16,0,2.31,0,3.47,0,.71-.32,1-1,1.08-.46,0-.94.3-1.37.24a12,12,0,0,0-3.17-.17c-.13,0-.4-.56-.48-.88a8.66,8.66,0,0,1-.08-1.35h-.34c0,.31-.08.63-.08.94,0,.64-.13,1.16-.88,1.23s-1.35.16-2,.18-1.35-.07-1.86.57c-.09.11-.72,0-.85-.17a1.29,1.29,0,0,0-1.39-.49c-1.33.12-2.68,0-4,.06a3.53,3.53,0,0,0-1.17.43c-.23.11-.51.44-.63.38a7,7,0,0,1-2.24-1.24,4.66,4.66,0,0,1-.94-2.16,1.09,1.09,0,0,1,.78-1.45.53.53,0,0,0,.3-.25,1.29,1.29,0,0,1,1.57-1,7.15,7.15,0,0,1,2,.68l.59-1.29c1,.34,1.91.72,2.89,1a2.37,2.37,0,0,0,1-.12c.3-.06.62-.3.88-.23s.29.46.37.73c.25.86-.35,1.43-.69,2.11s-.87,1-1.62.57v-.81c.3-.55.64-1.11-.42-1.16l-1.88.15-.8.23c-.45-.34-.94-.64-1.36-1a1,1,0,0,0-1.61.1c-.54.73-1.91,1.12-1.23,2.47l.07.08c1,1.43,2.15,1.64,3.71.81l.34-1.86c.31.26-.11,1.46,1,.75,0,1.39,0,1.38,1.44,1.17a1.79,1.79,0,0,1,.69,0c1,.32,2.06-.24,3,.5.1.08.41-.12.62-.18l2.26-.22c.85,0,1.57-.09,1.51-1.32,0-.45.59-.94,1-1.51l.48.78.45,2.08h.35l.43-.7-.15-1.69-.38-.43c0-.18,0-.5-.12-.52a7,7,0,0,0-2.09-.41,12.92,12.92,0,0,0-2.47.61l-.22-.21v-.59a5,5,0,0,0,1.36-.21,3.35,3.35,0,0,1,4,.55c.51.52.86.64,1.33-.08.19-.28.76-.3,1.13-.47a6.17,6.17,0,0,0,.7-.42,2,2,0,0,0-.64-.35c-1-.16-1.64-.49-1.58-1.68,0-.46.09-1.23-.8-1.24.22-.19.45-.52.66-.51s.48.36.55.6,0,.82.08,1.2c.15.59.26,1.32,1.2,1l.53,0a1.31,1.31,0,0,0,1.92-.29h0c.13-.26.37-.53.37-.8,0-5.11.06-10.23,0-15.34a13.13,13.13,0,0,0-.88-3.21l-.09-.43a21.41,21.41,0,0,0-1.53-2.93,6.93,6.93,0,0,0-1.77-1.28L96,90.93c-.06-.11-.11-.3-.2-.32-1.62-.42-3.14-1.31-4.91-1.12a32.15,32.15,0,0,0-4.62.48,34.53,34.53,0,0,0-4.56,1.8c-.73.36-1.46.7-2.18,1.08a.6.6,0,0,0-.23,1,6.39,6.39,0,0,1,.74,1.07c.49,1.08.61,1,1.63.47a41.72,41.72,0,0,1,3.9-1.64c.47,0,.94-.07,1.4-.16a9.87,9.87,0,0,1,7,.77l.78.67c.51,1.08,1.06,2.16,1.54,3.26a.8.8,0,0,1-.67,1.2c-1,.18-2.05.25-3.07.44-.77.15-1.52.42-2.28.63l-1.17.08c-1.24.08-2.51,0-3.51,1l-.57.08-.46.13-.36.06-2.08.94-1.2.83a5.17,5.17,0,0,0-3.08,3.6C77.78,108.18,77.7,109.15,77.62,110.11ZM97,119.82c.54.28,1,.49,1.51-.06.08-.09-.09-.57-.23-.62C97.75,118.92,97.28,119.07,97,119.82Z" transform="translate(-40.54 -70.55)"/><path class="cls-3" d="M121.91,89.33h1.42l1.16.22a15.5,15.5,0,0,1,2.47.54,32.36,32.36,0,0,1,3.38,1.57c1.71.89,1.84,1.51.75,3.1-.11.16-.19.35-.29.53-.37.67-.78.76-1.48.33a12.17,12.17,0,0,0-4.66-2.14,9.86,9.86,0,0,0-8.42,2.24,9.75,9.75,0,0,0-3.18,7.2,9.44,9.44,0,0,0,2.68,7c2.12,2.32,5,3,8.14,2.79a11.33,11.33,0,0,0,5.59-2.17c.66-.45,1.48-.78,2.13-.09,1.05,1.13,1.05,2,.18,2.89a4.55,4.55,0,0,1-.65.48,16.42,16.42,0,0,1-6.33,2.59c-1,.22-2.12.14-2.11,1.64,0,.17-.36.37-.59.5s-.71.35-1.07.52l-.12-.27c-.14-.29-.29-.59-.44-.88a4.08,4.08,0,0,0-.61.92,11.43,11.43,0,0,0-.11,1.19c-.18.83.18,1.13,1,1.06l.13.38h0l-.35.17-.71-.08a3.36,3.36,0,0,1,0-3.71c.91-1.39.4-1.55-.81-1.76a13.09,13.09,0,0,1-5.2-2.16,11.59,11.59,0,0,1-4.82-7.2,15.44,15.44,0,0,1-.34-4.92A13,13,0,0,1,118.78,90C119.81,89.7,120.87,89.54,121.91,89.33Zm9.76,3.9L127.78,91a1.24,1.24,0,0,0-.4-.09c-1.27-.28-2.54-.57-3.81-.83a3.56,3.56,0,0,0-1.4-.14c-.8.17-1.56.51-2.35.74-1.3.4-2.65.29-4,1.11-1.07.67-2.22,1.32-3.23,2.09-2.39,1.81-3,4.68-3.44,7.34-.35,1.91-.7,4.14.81,6a.54.54,0,0,1,.07.4c-.17,1.58,1,2.63,1.77,3.69a13,13,0,0,0,3.2,2.79,7.54,7.54,0,0,0,3.19,1.31,58,58,0,0,0,6.6.22,7,7,0,0,0,2.58-.37,33.42,33.42,0,0,0,3.07-1.63,1.61,1.61,0,0,0,1-2.24c-.29-.76-1-.83-1.61-.34a12.56,12.56,0,0,1-2.88,1.84,8.68,8.68,0,0,1-3.61.79,19,19,0,0,1-5-1,7.89,7.89,0,0,1-2.37-1.79c-2-1.82-3.5-3.91-3.22-6.84a12.26,12.26,0,0,0,0-2.64c-.24-1.9.82-3.31,1.81-4.65a10.76,10.76,0,0,1,2.83-2.45,15.06,15.06,0,0,1,3.39-1.61c2.45-.82,4.66.34,6.91,1.07.09,0,.15.13.24.18l2,1.27Z" transform="translate(-40.54 -70.55)"/><path class="cls-2" d="M121.91,89.33c-1,.21-2.1.37-3.13.64a13,13,0,0,0-10.2,11.83,15.44,15.44,0,0,0,.34,4.92,11.59,11.59,0,0,0,4.82,7.2,13.09,13.09,0,0,0,5.2,2.16c1.21.21,1.72.37.81,1.76a3.36,3.36,0,0,0,0,3.71l-4,.85v.3c-.18-.2-.34-.4-.53-.59a1.4,1.4,0,0,0-2.13.08c-.22.23-.69.52-.87.43a9.68,9.68,0,0,1-2.06-1.33,6.7,6.7,0,0,1-.77-1.34c-.17-.27-.45-.67-.67-.66s-.51.38-.74.62c0,.06,0,.2,0,.3-.13,1.85-.11,1.78-2,1.37a2.25,2.25,0,0,0-1.63.7c-.48.45-.77.59-1.24.07a1.54,1.54,0,0,0-.72-.46,2.24,2.24,0,0,1-1.68-1.87,2.47,2.47,0,0,1,.71-2.37c.72-.78,1.43-1.4,2.33-1a3.42,3.42,0,0,0,3.43,0c.28-.16.73,0,1.11,0,.83,0,1.79-.26,1.92,1.1,1.65-1.86,3.57-1.1,5.33-.81.88.15,1.66.68,2.37-.36-.12-.08-.27-.25-.43-.27-2.81-.36-4.77-2.15-6.58-4.07-.75-.79-1-2-1.7-2.93-1.08-1.45-1-3.08-1-4.72,0-.31-.29-.6-.39-.92s-.21-.63-.1-.74c.7-.7.53-1.57.51-2.4a7.1,7.1,0,0,1,1-3.6,13.75,13.75,0,0,1,3-4.07,16.1,16.1,0,0,1,2.49-1.66A12.87,12.87,0,0,1,118,89.43,17.7,17.7,0,0,1,121.91,89.33Zm-16.85,31.58.25-1.49.09-1L105,118l-.19-.08-1.12-.83h-.33a2.66,2.66,0,0,0-2.25,2.66c0,.13.2.22.31.33l.22.24.39.58.24.24A1.76,1.76,0,0,0,105,121Zm2.76-2c.41-.25.83-.48,1.23-.75a1.12,1.12,0,0,0,.44-.48.58.58,0,0,0-.24-.48,2.48,2.48,0,0,0-2.49.71l-.21.47c-.42.54-.55,2.36-.12,2.75.18.16.57.08.87.12Zm2.9,1.63c.43.3.84.84,1.3.87a12,12,0,0,0,2.26-.35,1.68,1.68,0,0,1,1,.1,3.66,3.66,0,0,0,2.93-.18c.49-.48.38-2.25-.37-3.17a10.07,10.07,0,0,0-.25,1.43c0,.67-.32.88-1,.87-.92,0-1.19-.49-1.21-1.37,0-.31-.5-.62-.78-.92a10.06,10.06,0,0,0-.46,1.14c0,.17.2.44.13.57a2.84,2.84,0,0,1-.6.6c.35-.66.14-1.05-.56-1.29-.87-.3-.93.34-1.2.92l1.37.44-1.76,0c-.39-1.07.55-1.39,1.08-2a8.5,8.5,0,0,0,.6-.84c-.42-.08-.94-.37-1.24-.22a6.77,6.77,0,0,0-1.45,1.24C109.72,119.23,109.77,119.81,110.72,120.56Z" transform="translate(-40.54 -70.55)"/><path class="cls-2" d="M121,119.05c.36-.17.73-.33,1.07-.52s.59-.33.59-.5c0-1.5,1.13-1.42,2.11-1.64a16.42,16.42,0,0,0,6.33-2.59,4.55,4.55,0,0,0,.65-.48c.87-.89.87-1.76-.18-2.89-.65-.69-1.47-.36-2.13.09a11.33,11.33,0,0,1-5.59,2.17c-3.14.25-6-.47-8.14-2.79a9.44,9.44,0,0,1-2.68-7,9.75,9.75,0,0,1,3.18-7.2,9.86,9.86,0,0,1,8.42-2.24,12.17,12.17,0,0,1,4.66,2.14c.7.43,1.11.34,1.48-.33.1-.18.18-.37.29-.53,1.09-1.59,1-2.21-.75-3.1A32.36,32.36,0,0,0,127,90.08a15.5,15.5,0,0,0-2.47-.54l-1.16-.22c1.47-.23,2.91-.62,4.3.45a25,25,0,0,0,2.81,1.48,9.43,9.43,0,0,1,1.74,1.33c.53.52.26,1.77-.41,2.36a4.07,4.07,0,0,0-.75.8,1.42,1.42,0,0,1-2.22.32,6.42,6.42,0,0,0-5.11-1.91,20.43,20.43,0,0,1-2.35,0,3.49,3.49,0,0,0-3,.9c-.51.56-1.43.74-2,1.28-.85.84-1.8,1.68-1.83,3a.79.79,0,0,1-.13.47c-1.44,1.55-1,3.41-.66,5.11.24,1.2,1.13,2.26,1.61,3.43a3.92,3.92,0,0,0,1.92,2.06c1.37.69,2.56,1.82,4.27,1.7.81-.06,1.63,0,2.44,0a2.54,2.54,0,0,0,2.24-.71.4.4,0,0,1,.27-.14c1.65-.11,2.7-1.43,4.11-2,.66-.28,1.16,0,1.49.73a4.65,4.65,0,0,0,.9,1.37c.56.61.17,2-.76,2.49s-1.79,1-2.72,1.47-1.84.78-3,1.28c1.27,0,2.32,0,3.36,0,.19,0,.32-.4.54-.54.38-.24.84-.61,1.21-.56s.65.65.67,1c.08,1.37,0,2.76,0,4.14,0,.7-.24,1.21-1,1.24s-.94-.61-1-1.25c-.07-1.39-.07-1.39-1.43-1.39a5.61,5.61,0,0,1-.82,0c-1-.14-1.37.28-1.26,1.26.09.8-.09,1.42-1.12,1.4s-1.13-.67-1.09-1.45.12-1.62.09-2.43c0-.27-.29-.54-.45-.81-.3.2-.68.33-.86.61s-.09.76-.29,1a1.09,1.09,0,0,1-.86.47c-.87-.22-.87.27-.94.88a6,6,0,0,1-.42,1.24c0-.13-.08-.25-.13-.38C120.82,120.4,120.93,119.72,121,119.05Zm9.77-2.47c-1.5,1.15-1.5,1.15-.32,2.15l.39,2.41c.29.48.56.48.83,0v-2.91l-.17-1.42-.21-.62Zm-4.53,2.71A2.81,2.81,0,0,1,128.1,118c.06,0,.18-.64.08-.72-.67-.53-2.41,0-2.83.85-.08.82-.21,1.64-.23,2.45,0,.19.37.38.56.57.19-.19.48-.36.53-.58A7,7,0,0,0,126.27,119.29Z" transform="translate(-40.54 -70.55)"/><path class="cls-2" d="M62.92,91.6c.27-.33.79-.65.78-1-.06-3.61-.22-7.23-.32-10.84,0-1.52.15-1.71,1.65-2a7,7,0,0,1,.9-.14c2.37-.09,2.78.31,2.78,2.67q0,17,0,34.1a5.55,5.55,0,0,1-.48,1.57,3.22,3.22,0,0,0-.3,1,4.16,4.16,0,0,0,.39,1.14,5,5,0,0,0,.59-.88,1.39,1.39,0,0,1,2-.6c.44.21.73.72,1.08,1.1l-.22.27c-.59-.46-1.11-1.12-2-.83a3.69,3.69,0,0,0-.3.82,4.53,4.53,0,0,0,0,.9l-.23.24c-.85.48-.77,1.28-.73,2.07-.87.07-1.75.1-2.61.23a2,2,0,0,1-1.52-3.33c.59-.5,1-1.12,1.94-1.07.23,0,.48-.26.73-.4l0-.29c-.35-.07-.72-.1-1.06-.2s-.75-.29-1.12-.44l.44-.08,1,0,1.55-.23.22-.24a17.8,17.8,0,0,0,.15-1.78q0-16.28,0-32.55c0-.41,0-.81-.07-1.21v-.61c-.27-.28-.51-.76-.81-.8a13.25,13.25,0,0,0-2.44,0,1,1,0,0,0-1,1.15c0,.82,0,1.63,0,2.44.12,2.5.27,5,.38,7.48,0,.9,0,1.8,0,3ZM66,120.33c.38-.33.86-.56.87-.81s-.53-.84-.62-.8a7,7,0,0,0-1.22.85Z" transform="translate(-40.54 -70.55)"/><path class="cls-3" d="M77.62,110.11c.08-1,.16-1.93.25-2.89a5.17,5.17,0,0,1,3.08-3.6c-1.92,1.71-3.18,3.76-2.65,6.43a15.9,15.9,0,0,0,1.31,3.12c0,.08.15.13.24.18a13.75,13.75,0,0,1,2.08,1.4,2.37,2.37,0,0,0,1.91.69c.5,0,1,.14,1.51.11,2-.13,4.19.55,6-1,.16-.13.47-.06.67-.16,1-.5,2-1,3-1.53.46-.21,1-.57,1.41-.43a1.58,1.58,0,0,1,.76,1.22,2.35,2.35,0,0,0,.86,2c-.94.27-1-.46-1.2-1-.09-.38,0-.82-.08-1.2s-.35-.59-.55-.6-.44.32-.66.51l-.2.2-.63.39-1.38.87-.7.27-.35.1-1,.62-.38.08-.44.12-.59.06-1.06.21v.35l1,.29.29.34v.59l-1.29-.47c0,.67.2,1.34,0,1.56-1.61,1.53-1.63,1.53.3,2.44-.21.06-.52.26-.62.18-.91-.74-2-.18-3-.5a1.79,1.79,0,0,0-.69,0c-1.42.21-1.42.22-1.44-1.17l.2-.16.53,1.17,1.48-.76c.75.41,1.23.21,1.62-.57s.94-1.25.69-2.11c-.08-.27-.2-.68-.37-.73s-.58.17-.88.23a2.37,2.37,0,0,1-1,.12c-1-.29-1.93-.67-2.89-1l-.61-.09L81,115.13l-.35-.14-1.68-1.65-.26-.41-1-2.23Z" transform="translate(-40.54 -70.55)"/><path class="cls-3" d="M62.92,91.6l1.27.77c0-1.2,0-2.1,0-3-.11-2.49-.26-5-.38-7.48,0-.81,0-1.62,0-2.44a1,1,0,0,1,1-1.15,13.25,13.25,0,0,1,2.44,0c.3,0,.54.52.81.8a26.22,26.22,0,0,0-2.64-.38c-.67,0-1.07.28-1,1.12.07,2.34,0,4.68,0,7a7,7,0,0,0,.07.91c.17,1.19.42,2.38.49,3.58,0,.5-.26,1.41-.52,1.45a2.46,2.46,0,0,1-1.72-.47,8.29,8.29,0,0,0-3.27-1.68c-1.76-.36-3.43-1-5.25-.17-.74.35-1.81.16-2.41.62-1.28,1-2.95,1.58-3.73,3.19-.62,1.28-1.59,2.35-1.86,3.84a12,12,0,0,1-1.11,2.6,8.47,8.47,0,0,1,.15-2,12.71,12.71,0,0,1,3-5.52,16.33,16.33,0,0,1,4-2.79,21.11,21.11,0,0,1,4-1.17h.41c.25.08.49.17.74.24,1.09.32,2.2.58,3.27,1a19.73,19.73,0,0,1,2.11,1.05Z" transform="translate(-40.54 -70.55)"/><path class="cls-3" d="M135.57,122.41a12.17,12.17,0,0,1-2.25-1.65,1.92,1.92,0,0,1,.23-2.88c.52-.54.85-1.26,1.85-1.18a2.33,2.33,0,0,1,2.17,2.47c0,.07,0,.14,0,.2C137.89,121,136.83,121.7,135.57,122.41Zm-.95-3.75c-1.07.53-1.14.69-.49,1.81.15.26.58.36.88.53.1-.38.34-.79.27-1.14A4.75,4.75,0,0,0,134.62,118.66Z" transform="translate(-40.54 -70.55)"/><path class="cls-3" d="M65.25,115.71l-.44.08c-.1-.59-.21-1.19-.31-1.78.08-.56.08-1.32-.7-.9-1.56.85-3,1.91-4.5,2.89l-.57.08c-1,.11-2.06.28-3.1.33a9.47,9.47,0,0,1-8.31-4,13.21,13.21,0,0,1-2.47-6.29c0-.16.13-.34.2-.51a4,4,0,0,1,.35.46c.88,1.63.85,3.54,1.9,5.23a8.16,8.16,0,0,0,5.13,4.11c2.1.43,4.37,0,6.57,0a.73.73,0,0,0,.39-.1c1.31-.85,2.59-1.74,3.91-2.56.34-.21.87-.43,1.16-.3s.46.68.54,1.07C65.14,114.24,65.17,115,65.25,115.71Z" transform="translate(-40.54 -70.55)"/><path class="cls-3" d="M54.86,117.63l.53-.61c.47.43.87.86,1.34,1.21.63.46,1.08.26,1.41-.46.15-.32.51-.53.77-.79.88.11,1.82.43,2.26-.75l1-.57c.73.38.47,1,.37,1.59,0,.31-.11.62-.17.93l-.79-.07-.37,1.17c0,.08-.06.12-.15.1a1.42,1.42,0,0,0-1.21-1.33l-1.71,2c-.5-1.15-1.59-1.36-2.6-1.68a6.24,6.24,0,0,1,.44,1.35,1.84,1.84,0,0,0,1.06,1.59l0,.35c-1-.07-1.44-.67-1.43-1.66a2.76,2.76,0,0,0-.31-.87l-.42-.52Z" transform="translate(-40.54 -70.55)"/><path class="cls-3" d="M73.65,115.49l1.51.36c.08,1,.15,2,.26,3a4.84,4.84,0,0,0,.33.92l.6.45c.25.47.52,1-.09,1.33s-1.06.5-1.48-.18a1.44,1.44,0,0,0,.51,0c.3-.13.58-.31.87-.47L75,120.11l-.47,1c-1-.76-.69-1.85-.75-2.86,0-.33-.06-.79-.28-1C72.56,116.59,72.84,116,73.65,115.49Zm.5.3-.73.6a3,3,0,0,0,.79.62c.13,0,.39-.29.59-.45Z" transform="translate(-40.54 -70.55)"/><path class="cls-2" d="M73.65,115.49c-.81.55-1.09,1.1-.11,1.81.22.16.27.62.28,1,.06,1-.26,2.1.75,2.86l.21.21c.42.68,1,.45,1.48.18s.34-.86.09-1.33c.66-.1.9.31.84.83-.09.68-.34,1.33-1.15,1.49a2.49,2.49,0,0,1-2.43-1.57,5.81,5.81,0,0,1-.21-1.6c0-1,0-1.88-.92-2.51a1,1,0,0,1-.21-.75A10.52,10.52,0,0,1,73.65,115.49Z" transform="translate(-40.54 -70.55)"/><path class="cls-4" d="M57.08,121.34A1.84,1.84,0,0,1,56,119.75a6.24,6.24,0,0,0-.44-1.35c1,.32,2.1.53,2.6,1.68l.15.62-.1.38Z" transform="translate(-40.54 -70.55)"/><path class="cls-3" d="M71.73,118.09l.22-.27.36.26.21.37,0,2.64-.24.37h0c-1.19-.15-2.39.55-3.58,0l-.25-.16c0-.79-.12-1.59.73-2.07a5.29,5.29,0,0,0-.11.88c0,.2.1.54.23.57a6.64,6.64,0,0,0,2,.39c.29,0,.79-.6.79-.92A10,10,0,0,0,71.73,118.09Z" transform="translate(-40.54 -70.55)"/><path class="cls-2" d="M62.21,115.66l-1,.57c-.05-.19-.1-.38-.14-.49L59.3,116c1.49-1,2.94-2,4.5-2.89.78-.42.78.34.7.9-.56-.6-1.14-.28-1.52.13S61.62,114.74,62.21,115.66Z" transform="translate(-40.54 -70.55)"/><path class="cls-2" d="M62.77,91.54a19.73,19.73,0,0,0-2.11-1.05c-1.07-.38-2.18-.64-3.27-1-.25-.07-.49-.16-.74-.24,1.38-.25,2.73-.53,4,.55.38.34,1,.41,1.4.72A4.7,4.7,0,0,1,62.77,91.54Z" transform="translate(-40.54 -70.55)"/><path class="cls-4" d="M61.25,119.28l.37-1.17.79.07.2,0-.06,2.66-1.08.26Z" transform="translate(-40.54 -70.55)"/><path class="cls-2" d="M58.33,120.7l-.15-.62,1.71-2a1.42,1.42,0,0,1,1.21,1.33c-1.07-.38-1.76-.09-2.43,1A1.67,1.67,0,0,1,58.33,120.7Z" transform="translate(-40.54 -70.55)"/><path class="cls-2" d="M68.73,121.45c1.19.57,2.39-.13,3.58,0-.11.13-.19.35-.33.39a16.35,16.35,0,0,1-2,.59C69.19,122.6,68.87,122.11,68.73,121.45Z" transform="translate(-40.54 -70.55)"/><path class="cls-2" d="M75.75,119.72a4.84,4.84,0,0,1-.33-.92c-.11-1-.18-2-.26-3,.22.25.62.49.64.75C75.85,117.63,75.78,118.68,75.75,119.72Z" transform="translate(-40.54 -70.55)"/><path class="cls-2" d="M78.94,113.34,80.62,115C79.81,115.12,78.7,114,78.94,113.34Z" transform="translate(-40.54 -70.55)"/><path class="cls-2" d="M77.69,110.7l1,2.23C77.54,112.53,77.25,111.88,77.69,110.7Z" transform="translate(-40.54 -70.55)"/><path class="cls-2" d="M57.08,121.34l1.15-.26c.06.76-.26.93-1.18.61Z" transform="translate(-40.54 -70.55)"/><path class="cls-2" d="M81,115.13l1.17.78C81.49,116.21,81.26,116.06,81,115.13Z" transform="translate(-40.54 -70.55)"/><path class="cls-3" d="M61.47,121.15l1.08-.26C62.26,121.72,62,121.78,61.47,121.15Z" transform="translate(-40.54 -70.55)"/><path class="cls-2" d="M62.61,118.23l-.2,0c.06-.31.12-.62.17-.93Z" transform="translate(-40.54 -70.55)"/><path class="cls-2" d="M54.89,118.64l.42.52-.54-.13Z" transform="translate(-40.54 -70.55)"/><path class="cls-2" d="M72.52,118.45l-.21-.37Z" transform="translate(-40.54 -70.55)"/><path class="cls-2" d="M72.32,121.46l.24-.37Z" transform="translate(-40.54 -70.55)"/><path class="cls-2" d="M120.48,121.63l.35-.17c0,.11,0,.22-.08.34Z" transform="translate(-40.54 -70.55)"/><path class="cls-4" d="M65.25,115.71c-.08-.73-.11-1.47-.25-2.19-.08-.39-.26-.93-.54-1.07s-.82.09-1.16.3c-1.32.82-2.6,1.71-3.91,2.56a.73.73,0,0,1-.39.1c-2.2,0-4.47.43-6.57,0a8.16,8.16,0,0,1-5.13-4.11c-1-1.69-1-3.6-1.9-5.23a4,4,0,0,0-.35-.46c0-1.62,0-3.25,0-4.87a12,12,0,0,0,1.11-2.6c.27-1.49,1.24-2.56,1.86-3.84.78-1.61,2.45-2.19,3.73-3.19.6-.46,1.67-.27,2.41-.62,1.82-.85,3.49-.19,5.25.17a8.29,8.29,0,0,1,3.27,1.68,2.46,2.46,0,0,0,1.72.47c.26,0,.55-1,.52-1.45-.07-1.2-.32-2.39-.49-3.58a7,7,0,0,1-.07-.91c0-2.34,0-4.68,0-7,0-.84.38-1.16,1-1.12a26.22,26.22,0,0,1,2.64.38v.61a4,4,0,0,0-.36,1.11q0,16,0,32a21.76,21.76,0,0,0,.27,2.4l-.22.24-1.55.23ZM54,93.82c-.25,0-.56-.08-.74,0-2,1.21-2.93,3.25-4,5.14-.15.26.08.73.13,1.1l-.07.59c-.1.08-.29.16-.29.24,0,1.42,0,2.83,0,4.25,0,.08.19.16.29.24l.06.79c-.63,1.19.25,1.8,1,2.48l.13.78c-.32.8.27.85.79,1l.19.22c.13.94,2,2.35,2.9,2.16.05,0,.08-.1.12-.15l1,.08a8.63,8.63,0,0,0,1.61.74c.21.06.54-.37.82-.58l1-.25c.43,0,1,.22,1.28,0a22.92,22.92,0,0,0,3.48-2.53,3.43,3.43,0,0,0,.9-2.17c.09-3.56,0-7.13,0-10.69a2.81,2.81,0,0,0-.27-1,5.32,5.32,0,0,0-3.68-2.82,5.2,5.2,0,0,1-1-.43,5.7,5.7,0,0,0-4.14-.23c-.28.06-.45.52-.68.8Z" transform="translate(-40.54 -70.55)"/><path class="cls-3" d="M53.83,119.73c0,1.61-.11,1.74-1.53,1.76a3.18,3.18,0,0,1-.8.06c-.56-.16-1.34-.25-1.56-.63s.13-1.1.29-1.65c.1-.37.34-.69.46-1s.1-1,.25-1a2.09,2.09,0,0,1,1.51.06C53.27,117.89,54.11,118.63,53.83,119.73Zm-2.72-2.17c.43.68.73,1.2-.2,1.68a.93.93,0,0,0,.16,1.65c1.78.73,2.51.21,2.34-1.7v-.11A2.33,2.33,0,0,0,51.11,117.56Z" transform="translate(-40.54 -70.55)"/><path class="cls-1" d="M59.3,116l1.73-.26c0,.11.09.3.14.49-.44,1.18-1.38.86-2.26.75l-.18-.9Z" transform="translate(-40.54 -70.55)"/><path class="cls-1" d="M47.3,120.39l-.82-.86a3.24,3.24,0,0,1,.92-.62c.17,0,.66.39.63.51A4.08,4.08,0,0,1,47.3,120.39Z" transform="translate(-40.54 -70.55)"/><path class="cls-4" d="M44.3,117.42a2.45,2.45,0,0,1-.13,2.78C42.91,118.73,42.92,118.64,44.3,117.42Z" transform="translate(-40.54 -70.55)"/><path class="cls-4" d="M42.34,122.4l-.59-.29c.31-1.15,1.54-1.35,2.58-.36Z" transform="translate(-40.54 -70.55)"/><path class="cls-4" d="M98.06,115.66a2.35,2.35,0,0,1-.86-2,1.58,1.58,0,0,0-.76-1.22c-.38-.14-1,.22-1.41.43-1,.49-2,1-3,1.53-.2.1-.51,0-.67.16-1.79,1.55-4,.87-6,1-.5,0-1-.13-1.51-.11a2.37,2.37,0,0,1-1.91-.69,13.75,13.75,0,0,0-2.08-1.4c-.09,0-.21-.1-.24-.18a15.9,15.9,0,0,1-1.31-3.12c-.53-2.67.73-4.72,2.65-6.43l1.2-.83,2.08-.94.36-.07.46-.12.57-.08a6.08,6.08,0,0,0,3.51-1l1.17-.08a5.16,5.16,0,0,0,1.17.08c1.32-.2,2.63-.48,3.94-.7s1.73-.79,1.32-2a15.72,15.72,0,0,0-1.19-2.57c-.1-.19-.5-.22-.76-.32L94,94.35c-.11-.23-.15-.6-.32-.67a8.92,8.92,0,0,0-5-1.1c-1.1.17-2.27.18-3.07,1.16a41.72,41.72,0,0,0-3.9,1.64c-1,.56-1.14.61-1.63-.47a6.39,6.39,0,0,0-.74-1.07.6.6,0,0,1,.23-1c.72-.38,1.45-.72,2.18-1.08.73.66,1.37.12,2-.15a11.77,11.77,0,0,1,1.93-.7,26.8,26.8,0,0,0,2.89-.41,7.5,7.5,0,0,1,4.11-.37c1.11.24,2.21.52,3.32.79l.57.48c.76,1,1.51,2.07,2.28,3.08.31.4.68.76,1,1.13l.09.43c0,.42,0,.85,0,1.27.15,1.43.43,2.86.46,4.29.07,4.6.06,9.2.07,13.79h0l-1.92.29ZM97,106.07c0-.92,0-1.84,0-2.75s-.34-1.18-1.17-1.16c-1.39,0-2.79,0-4.18,0a16.23,16.23,0,0,0-2.75.51,14.08,14.08,0,0,1-2.17.65c-1.39.11-2.28,1.11-3.4,1.69A2.74,2.74,0,0,0,82,106.5c-.41,1.33-1.34,2.7-.15,4.12.24.29.18.88.44,1.07.74.53,1.29,1.42,2.41,1.33.29,0,.59.29.9.4.5.18,1,.53,1.49.46,1.7-.27,3.38-.68,5.06-1,.06,0,.11-.07.17-.11,1-.68,2.06-1.39,3.11-2s1.68-1.22,1.54-2.48C96.94,107.5,97,106.78,97,106.07Z" transform="translate(-40.54 -70.55)"/><path class="cls-1" d="M93.36,114.78l1.38-.87.63-.39.2-.2c.89,0,.82.78.8,1.24-.06,1.19.61,1.52,1.58,1.68a2,2,0,0,1,.64.35,6.17,6.17,0,0,1-.7.42c-.37.17-.94.19-1.13.47-.47.72-.82.6-1.33.08a3.35,3.35,0,0,0-4-.55,5,5,0,0,1-1.36.21l-.29-.34.09-.85.59-.06.44-.12.38-.08c.61.25.92,0,1-.62l.35-.1Z" transform="translate(-40.54 -70.55)"/><path class="cls-4" d="M82.41,119.07l-.34,1.86c-1.56.83-2.75.62-3.71-.81l-.07-.08c-.68-1.35.69-1.74,1.23-2.47a1,1,0,0,1,1.61-.1c.42.37.91.67,1.36,1C82.47,118.68,82.44,118.87,82.41,119.07Z" transform="translate(-40.54 -70.55)"/><path class="cls-4" d="M89.09,121.34c-1.93-.91-1.91-.91-.3-2.44.23-.22,0-.89,0-1.56l1.29.47.22.21c0,.09,0,.23.06.27a2.33,2.33,0,0,1,1,2.83Z" transform="translate(-40.54 -70.55)"/><path class="cls-3" d="M96,90.93c-1.11-.27-2.21-.55-3.32-.79a7.5,7.5,0,0,0-4.11.37,26.8,26.8,0,0,1-2.89.41,11.77,11.77,0,0,0-1.93.7c-.67.27-1.31.81-2,.15A34.53,34.53,0,0,1,86.28,90a32.15,32.15,0,0,1,4.62-.48c1.77-.19,3.29.7,4.91,1.12C95.9,90.63,96,90.82,96,90.93Z" transform="translate(-40.54 -70.55)"/><path class="cls-3" d="M100.51,115.4c0-4.59,0-9.19-.07-13.79,0-1.43-.31-2.86-.46-4.29,0-.42,0-.85,0-1.27a13.13,13.13,0,0,1,.88,3.21c.09,5.11.05,10.23,0,15.34C100.88,114.87,100.64,115.14,100.51,115.4Z" transform="translate(-40.54 -70.55)"/><path class="cls-3" d="M91.35,121.12a2.33,2.33,0,0,0-1-2.83c-.06,0,0-.18-.06-.27a12.92,12.92,0,0,1,2.47-.61,7,7,0,0,1,2.09.41c.08,0,.08.34.12.52l-.7.73-.48-.78c-.38.57-1,1.06-1,1.51C92.92,121,92.2,121.08,91.35,121.12Z" transform="translate(-40.54 -70.55)"/><path class="cls-3" d="M94.78,95c.26.1.66.13.76.32a15.72,15.72,0,0,1,1.19,2.57c.41,1.23,0,1.81-1.32,2s-2.62.5-3.94.7a5.16,5.16,0,0,1-1.17-.08c.76-.21,1.51-.48,2.28-.63,1-.19,2.06-.26,3.07-.44a.8.8,0,0,0,.67-1.2C95.84,97.18,95.29,96.1,94.78,95Z" transform="translate(-40.54 -70.55)"/><path class="cls-3" d="M85.58,93.74c.8-1,2-1,3.07-1.16a8.92,8.92,0,0,1,5,1.1c.17.07.21.44.32.67a9.87,9.87,0,0,0-7-.77C86.52,93.67,86.05,93.69,85.58,93.74Z" transform="translate(-40.54 -70.55)"/><path class="cls-4" d="M85.58,120.07l-1.48.76-.53-1.17-.28-1.41,1.88-.15.42,1.16Z" transform="translate(-40.54 -70.55)"/><path class="cls-3" d="M99.88,95.62c-.34-.37-.71-.73-1-1.13-.77-1-1.52-2-2.28-3.08a6.93,6.93,0,0,1,1.77,1.28A21.41,21.41,0,0,1,99.88,95.62Z" transform="translate(-40.54 -70.55)"/><path class="cls-4" d="M94.31,119.07l.7-.73.38.43.15,1.69-.43.7h-.35Z" transform="translate(-40.54 -70.55)"/><path class="cls-1" d="M83.29,118.25l.28,1.41-.2.16c-1.07.71-.65-.49-1-.75,0-.2.06-.39.08-.59Z" transform="translate(-40.54 -70.55)"/><path class="cls-3" d="M89.13,100.63a6.08,6.08,0,0,1-3.51,1C86.62,100.65,87.89,100.71,89.13,100.63Z" transform="translate(-40.54 -70.55)"/><path class="cls-1" d="M97,119.82c.24-.75.71-.9,1.28-.68.14,0,.31.53.23.62C98.09,120.31,97.58,120.1,97,119.82Z" transform="translate(-40.54 -70.55)"/><path class="cls-3" d="M84.23,101.85l-2.08.94Z" transform="translate(-40.54 -70.55)"/><path class="cls-3" d="M98.59,115.69l1.92-.29A1.31,1.31,0,0,1,98.59,115.69Z" transform="translate(-40.54 -70.55)"/><path class="cls-3" d="M95.54,120.46l-.15-1.69Z" transform="translate(-40.54 -70.55)"/><path class="cls-3" d="M85.59,119.26l-.42-1.16C86.23,118.15,85.89,118.71,85.59,119.26Z" transform="translate(-40.54 -70.55)"/><path class="cls-3" d="M85.05,101.66l-.46.12Z" transform="translate(-40.54 -70.55)"/><path class="cls-4" d="M131.67,93.23l-1.76,1.89-2-1.27c-.09,0-.15-.15-.24-.18-2.25-.73-4.46-1.89-6.91-1.07a15.06,15.06,0,0,0-3.39,1.61,10.76,10.76,0,0,0-2.83,2.45c-1,1.34-2.05,2.75-1.81,4.65a12.26,12.26,0,0,1,0,2.64c-.28,2.93,1.2,5,3.22,6.84a7.89,7.89,0,0,0,2.37,1.79,19,19,0,0,0,5,1,8.68,8.68,0,0,0,3.61-.79,12.56,12.56,0,0,0,2.88-1.84c.64-.49,1.32-.42,1.61.34a1.61,1.61,0,0,1-1,2.24,33.42,33.42,0,0,1-3.07,1.63,7,7,0,0,1-2.58.37,58,58,0,0,1-6.6-.22,7.54,7.54,0,0,1-3.19-1.31,13,13,0,0,1-3.2-2.79c-.81-1.06-1.94-2.11-1.77-3.69a.54.54,0,0,0-.07-.4c-1.51-1.81-1.16-4-.81-6,.48-2.66,1-5.53,3.44-7.34,1-.77,2.16-1.42,3.23-2.09,1.33-.82,2.68-.71,4-1.11.79-.23,1.55-.57,2.35-.74a3.56,3.56,0,0,1,1.4.14c1.27.26,2.54.55,3.81.83a1.24,1.24,0,0,1,.4.09Z" transform="translate(-40.54 -70.55)"/><path class="cls-4" d="M121,119.05c-.1.67-.21,1.35-.32,2-.78.07-1.14-.23-1-1.06a11.43,11.43,0,0,1,.11-1.19,4.08,4.08,0,0,1,.61-.92c.15.29.3.59.44.88Z" transform="translate(-40.54 -70.55)"/><path class="cls-4" d="M113.72,120.15a2.84,2.84,0,0,0,.6-.6c.07-.13-.18-.4-.13-.57a10.06,10.06,0,0,1,.46-1.14c.28.3.77.61.78.92,0,.88.29,1.34,1.21,1.37.63,0,1-.2,1-.87a10.07,10.07,0,0,1,.25-1.43c.75.92.86,2.69.37,3.17a3.66,3.66,0,0,1-2.93.18,1.68,1.68,0,0,0-1-.1,12,12,0,0,1-2.26.35c-.46,0-.87-.57-1.3-.87l.85-.37,1.76,0Z" transform="translate(-40.54 -70.55)"/><path class="cls-4" d="M105.4,118.42l-.09,1c-1,.36-.14,1-.25,1.49l0,0-2.71.2-.24-.24-.39-.58-.22-.24a2.21,2.21,0,0,1,1-2,9.75,9.75,0,0,0,1-1h.33l1.12.83.19.08C105.16,118.14,105.28,118.28,105.4,118.42Z" transform="translate(-40.54 -70.55)"/><path class="cls-3" d="M111.57,120.19l-.85.37c-1-.75-1-1.33-.16-2.15a6.77,6.77,0,0,1,1.45-1.24c.3-.15.82.14,1.24.22a8.5,8.5,0,0,1-.6.84C112.12,118.8,111.18,119.12,111.57,120.19Z" transform="translate(-40.54 -70.55)"/><path class="cls-4" d="M106.55,118.4l.21-.47c.72-.06.94.42,1.06,1-.17.78-.35,1.56-.52,2.34a4.51,4.51,0,0,1-.68-1.17A8,8,0,0,1,106.55,118.4Z" transform="translate(-40.54 -70.55)"/><path class="cls-3" d="M107.82,118.93c-.12-.58-.34-1.06-1.06-1a2.48,2.48,0,0,1,2.49-.71.58.58,0,0,1,.24.48,1.12,1.12,0,0,1-.44.48C108.65,118.45,108.23,118.68,107.82,118.93Z" transform="translate(-40.54 -70.55)"/><path class="cls-1" d="M113.72,120.15l-.39.07-1.37-.44c.27-.58.33-1.22,1.2-.92C113.86,119.1,114.07,119.49,113.72,120.15Z" transform="translate(-40.54 -70.55)"/><path class="cls-3" d="M103.39,117.11a9.75,9.75,0,0,1-1,1,2.21,2.21,0,0,0-1,2c-.11-.11-.28-.2-.31-.33A2.66,2.66,0,0,1,103.39,117.11Z" transform="translate(-40.54 -70.55)"/><path class="cls-3" d="M102.3,121.16,105,121A1.76,1.76,0,0,1,102.3,121.16Z" transform="translate(-40.54 -70.55)"/><path class="cls-3" d="M106.55,118.4a8,8,0,0,0,.07,1.7,4.51,4.51,0,0,0,.68,1.17c-.3,0-.69,0-.87-.12C106,120.76,106.13,118.94,106.55,118.4Z" transform="translate(-40.54 -70.55)"/><path class="cls-3" d="M105.06,120.91c.11-.49-.7-1.13.25-1.49C105.22,119.92,105.14,120.42,105.06,120.91Z" transform="translate(-40.54 -70.55)"/><path class="cls-3" d="M104.84,117.93l-1.12-.83Z" transform="translate(-40.54 -70.55)"/><path class="cls-3" d="M101.67,120.34l.39.58Z" transform="translate(-40.54 -70.55)"/><path class="cls-3" d="M105.4,118.42c-.12-.14-.24-.28-.37-.41C105.16,118.14,105.28,118.28,105.4,118.42Z" transform="translate(-40.54 -70.55)"/><path class="cls-4" d="M130.87,121.14l-.39-2.41a.78.78,0,0,1,1.23-.52c0,1,0,1.94,0,2.91Z" transform="translate(-40.54 -70.55)"/><path class="cls-3" d="M125.35,118.15c.42-.82,2.16-1.38,2.83-.85.1.08,0,.72-.08.72a2.81,2.81,0,0,0-1.83,1.27c0-.39-.07-.79-.1-1.21Z" transform="translate(-40.54 -70.55)"/><path class="cls-4" d="M125.35,118.15l.82-.07c0,.42.06.82.1,1.21a7,7,0,0,1-.06,1.3c0,.22-.34.39-.53.58-.19-.19-.56-.38-.56-.57C125.14,119.79,125.27,119,125.35,118.15Z" transform="translate(-40.54 -70.55)"/><path class="cls-3" d="M131.71,118.21a.78.78,0,0,0-1.23.52c-1.18-1-1.18-1,.32-2.15l.74.21Z" transform="translate(-40.54 -70.55)"/><path class="cls-4" d="M131.54,116.79l-.74-.21.53-.41Z" transform="translate(-40.54 -70.55)"/><path class="cls-3" d="M130.87,121.14l.83,0C131.43,121.62,131.16,121.62,130.87,121.14Z" transform="translate(-40.54 -70.55)"/><path class="cls-3" d="M68,115.26a21.76,21.76,0,0,1-.27-2.4q0-16,0-32a4,4,0,0,1,.36-1.11c0,.4.07.8.07,1.21q0,16.27,0,32.55A17.8,17.8,0,0,1,68,115.26Z" transform="translate(-40.54 -70.55)"/><path class="cls-4" d="M71.73,118.09a10,10,0,0,1,.43,2c0,.32-.5.91-.79.92a6.64,6.64,0,0,1-2-.39c-.13,0-.22-.37-.23-.57a5.29,5.29,0,0,1,.11-.88l.23-.24c.69-.07,1.13-.25.52-1a2.47,2.47,0,0,1-.24-.71C70.62,117,71.14,117.63,71.73,118.09Z" transform="translate(-40.54 -70.55)"/><path class="cls-1" d="M66,120.33l-1-.76a7,7,0,0,1,1.22-.85c.09,0,.63.53.62.8S66.4,120,66,120.33Z" transform="translate(-40.54 -70.55)"/><path class="cls-3" d="M69.72,117.26A2.47,2.47,0,0,0,70,118c.61.76.17.94-.52,1a4.53,4.53,0,0,1,0-.9A3.69,3.69,0,0,1,69.72,117.26Z" transform="translate(-40.54 -70.55)"/><path class="cls-3" d="M66.2,115.73l1.55-.23Z" transform="translate(-40.54 -70.55)"/><path class="cls-2" d="M89.91,116l-.09.85-1-.29v-.35Z" transform="translate(-40.54 -70.55)"/><path class="cls-2" d="M92.31,115.15c-.07.62-.38.87-1,.62Z" transform="translate(-40.54 -70.55)"/><path class="cls-2" d="M93.36,114.78l-.7.27Z" transform="translate(-40.54 -70.55)"/><path class="cls-2" d="M95.37,113.52l-.63.39Z" transform="translate(-40.54 -70.55)"/><path class="cls-2" d="M90.94,115.85l-.44.12Z" transform="translate(-40.54 -70.55)"/><path class="cls-4" d="M134.62,118.66a4.75,4.75,0,0,1,.66,1.2c.07.35-.17.76-.27,1.14-.3-.17-.73-.27-.88-.53C133.48,119.35,133.55,119.19,134.62,118.66Z" transform="translate(-40.54 -70.55)"/><path class="cls-4" d="M74.78,121.32l-.21-.21c.16-.33.31-.67.47-1l1.12.72c-.29.16-.57.34-.87.47A1.44,1.44,0,0,1,74.78,121.32Z" transform="translate(-40.54 -70.55)"/><path class="cls-4" d="M74.15,115.79l.65.77c-.2.16-.46.49-.59.45a3,3,0,0,1-.79-.62Z" transform="translate(-40.54 -70.55)"/><path class="cls-2" d="M55.42,112.75l-1-.08-3-2c-.06-.07-.13-.14-.19-.22-.27-.32-.53-.65-.79-1,0-.26-.09-.52-.13-.78l-1-2.48-.06-.79v-4.73c0-.2,0-.39.07-.59l.28-.51a24.46,24.46,0,0,1,1.83-3.34A19.6,19.6,0,0,1,54,93.82l.81-.24a6.65,6.65,0,0,1,3.45-.39,9.61,9.61,0,0,1,5,2.3,2.55,2.55,0,0,1,.71,1.59c.06,3.72.07,7.45,0,11.18a3.19,3.19,0,0,1-.85,1.85,10.74,10.74,0,0,1-4.17,2.55l-1,.25Zm7.95-10.09V98.07a3.69,3.69,0,0,0-2.91-3.8,32.64,32.64,0,0,0-5-.19,2.1,2.1,0,0,0-1.27.27c-1.54,1.35-3.43,2.47-3.7,4.82a5.58,5.58,0,0,1-.28.74,14.3,14.3,0,0,0-.53,2,14.41,14.41,0,0,0,.93,5.94A6.09,6.09,0,0,0,54.51,112c1.67.6,3.74,1,5.4-.55.14-.12.39-.11.58-.16a4.24,4.24,0,0,0,2.88-3.84Z" transform="translate(-40.54 -70.55)"/><path class="cls-3" d="M58.89,112.66a10.74,10.74,0,0,0,4.17-2.55,3.19,3.19,0,0,0,.85-1.85c.08-3.73.07-7.46,0-11.18a2.55,2.55,0,0,0-.71-1.59,9.61,9.61,0,0,0-5-2.3,6.65,6.65,0,0,0-3.45.39c.23-.28.4-.74.68-.8a5.7,5.7,0,0,1,4.14.23,5.2,5.2,0,0,0,1,.43,5.32,5.32,0,0,1,3.68,2.82,2.81,2.81,0,0,1,.27,1c0,3.56.06,7.13,0,10.69a3.43,3.43,0,0,1-.9,2.17,22.92,22.92,0,0,1-3.48,2.53C59.87,112.88,59.32,112.68,58.89,112.66Z" transform="translate(-40.54 -70.55)"/><path class="cls-3" d="M54,93.82a19.6,19.6,0,0,0-2.55,2.43,24.46,24.46,0,0,0-1.83,3.34l-.28.51c-.05-.37-.28-.84-.13-1.1,1.12-1.89,2.08-3.93,4-5.14C53.44,93.74,53.75,93.83,54,93.82Z" transform="translate(-40.54 -70.55)"/><path class="cls-3" d="M49.27,100.69v4.73c-.1-.08-.29-.16-.29-.24,0-1.42,0-2.83,0-4.25C49,100.85,49.17,100.77,49.27,100.69Z" transform="translate(-40.54 -70.55)"/><path class="cls-3" d="M51.39,110.66l3,2s-.07.15-.12.15C53.41,113,51.52,111.6,51.39,110.66Z" transform="translate(-40.54 -70.55)"/><path class="cls-3" d="M55.42,112.75l2.43.16c-.28.21-.61.64-.82.58A8.63,8.63,0,0,1,55.42,112.75Z" transform="translate(-40.54 -70.55)"/><path class="cls-3" d="M49.33,106.21l1,2.48C49.58,108,48.7,107.4,49.33,106.21Z" transform="translate(-40.54 -70.55)"/><path class="cls-3" d="M50.41,109.47c.26.32.52.65.79,1C50.68,110.32,50.09,110.27,50.41,109.47Z" transform="translate(-40.54 -70.55)"/><path class="cls-4" d="M51.11,117.56a2.33,2.33,0,0,1,2.3,1.52v.11c.17,1.91-.56,2.43-2.34,1.7a.93.93,0,0,1-.16-1.65C51.84,118.76,51.54,118.24,51.11,117.56Z" transform="translate(-40.54 -70.55)"/><path class="cls-3" d="M97,106.07c0,.71-.06,1.43,0,2.13.14,1.26-.6,1.9-1.54,2.48s-2.07,1.36-3.11,2c-.06,0-.11.1-.17.11-1.68.37-3.36.78-5.06,1-.46.07-1-.28-1.49-.46-.31-.11-.61-.43-.9-.4-1.12.09-1.67-.8-2.41-1.33-.26-.19-.2-.78-.44-1.07-1.19-1.42-.26-2.79.15-4.12a2.74,2.74,0,0,1,1.3-1.45c1.12-.58,2-1.58,3.4-1.69a14.08,14.08,0,0,0,2.17-.65,16.23,16.23,0,0,1,2.75-.51c1.39-.08,2.79,0,4.18,0,.83,0,1.19.34,1.17,1.16S97,105.15,97,106.07Zm-2.7-3.48c-.78.09-2,.19-3.19.4s-2.38.52-3.56.81a9,9,0,0,0-4.33,2.26,3.87,3.87,0,0,0-.85,4.22,3.35,3.35,0,0,0,2.93,2.35,30,30,0,0,0,4.74,0,3.77,3.77,0,0,0,1.56-.38,29.55,29.55,0,0,0,3.39-2c.75-.52,1.61-1.06,1.55-2.21s-.15-2.37-.11-3.56C96.49,102.7,96.44,102.6,94.3,102.59Z" transform="translate(-40.54 -70.55)"/><path class="cls-1" d="M63.37,102.66v4.78a4.24,4.24,0,0,1-2.88,3.84c-.19,0-.44,0-.58.16-1.66,1.5-3.73,1.15-5.4.55a6.09,6.09,0,0,1-3.85-4.12,14.41,14.41,0,0,1-.93-5.94,14.3,14.3,0,0,1,.53-2,5.58,5.58,0,0,0,.28-.74c.27-2.35,2.16-3.47,3.7-4.82a2.1,2.1,0,0,1,1.27-.27,32.64,32.64,0,0,1,5,.19,3.69,3.69,0,0,1,2.91,3.8Z" transform="translate(-40.54 -70.55)"/><path class="cls-2" d="M94.3,102.59c2.14,0,2.19.11,2.13,1.87,0,1.19,0,2.37.11,3.56s-.8,1.69-1.55,2.21a29.55,29.55,0,0,1-3.39,2,3.77,3.77,0,0,1-1.56.38,30,30,0,0,1-4.74,0,3.35,3.35,0,0,1-2.93-2.35,3.87,3.87,0,0,1,.85-4.22,9,9,0,0,1,4.33-2.26c1.18-.29,2.36-.6,3.56-.81S93.52,102.68,94.3,102.59Zm1.16.63c-.44,0-1.32-.27-1.82,0-1.42.93-3,.71-4.48.92a30.73,30.73,0,0,0-4.24,1.18c-.11,0-.2.17-.3.27-.48.48-1,1-1.44,1.44a3,3,0,0,0,.14,3.52,4.39,4.39,0,0,0,4,1.57c.73-.13,1.54.13,2.23-.06a27.66,27.66,0,0,0,3.61-1.38,4.27,4.27,0,0,0,1.28-.91c.54-.54,1.17-.95,1-2A36.64,36.64,0,0,1,95.46,103.22Z" transform="translate(-40.54 -70.55)"/><path class="cls-1" d="M95.46,103.22a36.64,36.64,0,0,0,0,4.61c.14,1-.49,1.45-1,2a4.27,4.27,0,0,1-1.28.91,27.66,27.66,0,0,1-3.61,1.38c-.69.19-1.5-.07-2.23.06a4.39,4.39,0,0,1-4-1.57,3,3,0,0,1-.14-3.52c.47-.49,1-1,1.44-1.44.1-.1.19-.24.3-.27a30.73,30.73,0,0,1,4.24-1.18c1.52-.21,3.06,0,4.48-.92C94.14,103,95,103.22,95.46,103.22Z" transform="translate(-40.54 -70.55)"/></svg>