<svg id="Layer_1" data-name="Layer 1" xmlns="http://www.w3.org/2000/svg" viewBox="0 0 197.65 147"><defs><style>.cls-1{fill:#fefefe;}.cls-2{fill:#c1faf6;}.cls-3{fill:#071111;}</style></defs><path class="cls-1" d="M100,188q-48.57,0-97.14,0c-1.41,0-1.68-.28-1.68-1.68q.06-71.82,0-143.64c0-1.4.27-1.68,1.68-1.68q97.14.06,194.28,0c1.41,0,1.68.28,1.68,1.68q-.06,71.82,0,143.64c0,1.4-.27,1.68-1.68,1.68Q148.57,187.93,100,188Z" transform="translate(-1.18 -41)"/><path class="cls-2" d="M88.87,131.26c-.61.41-1.36.68-1.87.09-1.92-2.22-4.61-1.91-7-2-5.45-.22-10.91-.06-16.37-.07-.92,0-1.7,0-2.08,1.14-.5,1.48-1.89,1.79-3.18,1.6a18.25,18.25,0,0,0-3.45-.23c-1.83.07-3.49,0-3.66-2.42,0-.49-.55-1.07-1-.65-1.2,1.2-3.09,1-4.24,2.32a2,2,0,0,1-2.89.3,1.32,1.32,0,0,1,.7-1.37c1.89-1.46,3.92-2.7,5.75-4.26,1.39-1.18,3.13-.06,3.5,2.24.23,1.49.68,2.32,2.39,2.36,3.65.08,3.83,0,3.83-3.67,0-13.87-.37-27.76.14-41.61.32-8.67.67-17.32.68-26,0-.62,0-1.23,0-1.85-.08-2.65-.54-3.08-3.13-3.2-1.71-.07-3.4.22-5.11.21-1.06-1.59-.1-2.31,1.28-2.42a42.08,42.08,0,0,1,6.15,0c2,.13,2.26,1.69,2.26,3.28q0,10.56,0,21.12c0,2.84,0,2.72,2.79,2.67,5.2-.09,10.4,0,15.6,0,2,0,3.92-.43,5.16-2.27.46-.68,1.17-.57,1.85-.61,2-.14,4.55.4,6-.59,3.81-2.58,7.86-.77,11.68-1.52,2.29-.46,3.41,1.72,5.43,1.85a9.76,9.76,0,0,1,4.5,1.72c1.54,1,3.73,2.29,6,1.52a2.72,2.72,0,0,1,.81-.09c9.78,0,19.58-.28,29.34.15a12.31,12.31,0,0,0,7.8-2.47c.22-.15.44-.43.67-.44,4.5-.24,8.36-3.56,13.13-2.61,1.78.35,3.82-.49,5.05,1.73.44.78,1.67.31,2.54.35,1.52.06,3,.07,3.89,1.67a1.37,1.37,0,0,0,1.17.75c2.16,0,3.29,1.94,5.09,2.68a1.46,1.46,0,0,1,.23,2.57c-1.95,1.54-3,4-5.32,5.15a1.1,1.1,0,0,0-.58,1.19c.74,8.93.32,17.88.21,26.82a5.48,5.48,0,0,0,2.63,5.09c1.24.87,1.39,2.62,3,3.22.54.2.52,1.8,0,2-1.89.67-2.61,3.07-4.88,3.1a2.41,2.41,0,0,0-1.6.81,3.84,3.84,0,0,1-3.51,1.21c-1.44-.08-2.87-.25-3.58,1.53-.25.64-1.06.5-1.67.5-2.8,0-5.72.48-8.38-.15a48,48,0,0,1-8.49-2.51,14.42,14.42,0,0,0-6.06-1.46c-7.05,0-14.11.26-21.14-.14a6.1,6.1,0,0,0-5.91,2.75c-1,1.33-2.4,1.9-3.84.55-.75-.7-2.34-.24-2.43-1.8a3.4,3.4,0,0,1,2.79.2c1.35.55,2.15,0,2.86-1.12,1.54-2.53,1.45-3.72-.78-5.56a7,7,0,0,1-2.72-5.87c.08-9.16.1-18.32,0-27.47-.07-7.43-5-12.88-12.36-14.37a42.92,42.92,0,0,0-9.77-.73,54,54,0,0,0-13,2.4c-.93.27-2,.64-1.78,2.07s1.7,3.16,2.83,3.14a5.87,5.87,0,0,0,3.55-.81,6.21,6.21,0,0,1,3.88-1c3.35,0,6.73-.26,10,.09s6.52,1.79,8.26,5.15c.8,1.57,1.91,3,1.7,4.94-.26,2.45-1.31,3.56-3.78,3.69-1.57.07-3.14,0-4.72,0a33.82,33.82,0,0,0-5.92.79,88.24,88.24,0,0,0-9.1,2.65,29.07,29.07,0,0,0-6.7,3c-2.55,1.54-3.45,4.43-4.41,7a15.23,15.23,0,0,0-.16,9.89c1.35,4.28,3.52,8.14,7.74,10.4A3.28,3.28,0,0,1,88.87,131.26Z" transform="translate(-1.18 -41)"/><path class="cls-3" d="M51.89,54.19c2.39-1.16,4.9-.55,7.35-.42,1.24.06,1.5,1.32,1.47,2.36-.21,7.56.42,15.14-.32,22.7a46.23,46.23,0,0,0-.15,4.71q0,22.84.12,45.68c0,1.27-.45,1.94-1.79,1.87-.88,0-1.77-.09-2.66-.05-2.13.09-3.67-.35-3.27-3a2.28,2.28,0,0,0-1.38-2.52c-1.17-.52-1.8.52-2.32,1.23-1.52,2.08-4.22,2.63-5.8,4.6l-.88.1a16.32,16.32,0,0,1-15.62-1.13,24.39,24.39,0,0,1-6.29-5.11,18,18,0,0,1-3.55-6.83,50.18,50.18,0,0,1-2.24-15.52,66.61,66.61,0,0,1,1.3-8.7,24.86,24.86,0,0,1,3.27-8.92c2.62-4.28,5.9-8,11.23-9.15a34.65,34.65,0,0,1,5.78-1.19c3.16-.13,6.1.71,9.07,1.45,1.74.43,3.08,1.74,4.56,2.7,1.2.79,1.69.53,2.06-.67C52.11,70.3,52,62.25,51.89,54.19Z" transform="translate(-1.18 -41)"/><path class="cls-3" d="M88.87,131.26c-1.89-2-4.51-3.24-6.25-5.51A19,19,0,0,1,79,117.06,17,17,0,0,1,85.27,101c2.9-2.2,6.59-2,9.35-4.2.76-.59,1.87-.18,2.81-.17,1.39,0,2.76.08,3.7-1.24a1.2,1.2,0,0,1,1.3-.39,42.2,42.2,0,0,0,7.37.19c3.53,0,5.21-2.93,3.36-5.94a16.18,16.18,0,0,1-1.63-3c-.09-.25-.22-.65-.39-.69-2.37-.55-3.82-3-6.47-3-3.69.05-7.39,0-11.08,0a4.67,4.67,0,0,0-3,1.05,5.31,5.31,0,0,1-4.73.79c-1.57-.68-2.46-2.87-2.6-4.5-.12-1.36,2-1.64,3.31-2.15,2.8-1.1,5.82-1.3,8.72-1.77a27.88,27.88,0,0,1,11.71.25c.81.22,1.66,0,2.41.31,4.33,1.45,8,3.33,10.31,7.94,1.65,3.35,1.83,6.54,1.85,10,.05,8.14.15,16.27,0,24.4a6.4,6.4,0,0,0,3.13,6,2.31,2.31,0,0,1,1.19,2.81,12,12,0,0,1-1.94,4c-.48.81-1.14.51-1.8.24a6.42,6.42,0,0,0-3.33-.75L117.61,130a3.3,3.3,0,0,1-2.17-2.29c-.72-1.8-1.91-1.53-3.12-.78-1.62,1-2.88,2.48-4.57,3.4-.83.45-1.55,1.18-2.62.89a2.42,2.42,0,0,0-2.7.59c-.11,1.34-1.19,1.29-2.07,1.33-2.29.08-4.59.08-6.88,0-.87,0-2,0-2.07-1.33C90.71,131,89.76,131.25,88.87,131.26Z" transform="translate(-1.18 -41)"/><path class="cls-2" d="M51.83,78.36c1.28,1.07.19,1.75-.47,2.37S50,81,49.61,80.2A7,7,0,0,0,45.33,77C40.66,75.61,36,74.86,31,76.45c-5.87,1.87-9.5,5.61-12,11a39.37,39.37,0,0,0-3,24.3c.84,4.65,1.55,9.55,5,13.32a40.13,40.13,0,0,0,4.62,4c3.95,3.2,8.45,2.93,13,3.11,1.37.05,2.29-1.38,3.66-.74a3.9,3.9,0,0,1-4.39,2.38,26.72,26.72,0,0,0-3.9,0c-1.46,0-2.86,0-3.88-1.28A2.06,2.06,0,0,0,29,132c-3.81-.9-6.31-3.44-8.76-6.35s-4.39-5.57-4.25-9.42a.65.65,0,0,0-.12-.39c-2.94-3.33-1.64-7.39-1.86-11.17-.13-2.25,0-4.51,0-6.76,0-1.65.14-3.28,1.51-4.49a2.08,2.08,0,0,0,.53-1.7,6.33,6.33,0,0,1,1.76-4.94c1.14-1.12,1.32-3,2.48-4.49a35,35,0,0,1,7.06-6.27,2.33,2.33,0,0,1,1.33-.48A4.68,4.68,0,0,0,33,73.93c.86-1.05,7.46-.54,8.68.36.28.2.5.6.79.64a15,15,0,0,1,7.66,3.64C50.68,79.05,51.26,78.54,51.83,78.36Z" transform="translate(-1.18 -41)"/><path class="cls-2" d="M105.13,131.22c2.86-1.67,5.11-4.22,8.18-5.6.94-.42,1.87-.52,2.23.51.49,1.43,1.56,2.49,2.07,3.87-2,.42-3.86-.47-5.83-.37a5,5,0,0,0-3.67,1.36A1.9,1.9,0,0,1,105.13,131.22Z" transform="translate(-1.18 -41)"/><path class="cls-2" d="M91.41,131.81a33.41,33.41,0,0,0,11,0c.38,1.56-.59,1.94-1.82,2q-3.69.07-7.38,0C92,133.75,91,133.38,91.41,131.81Z" transform="translate(-1.18 -41)"/><path class="cls-3" d="M170.67,82.52c-6-1-10.25,2.94-13.44,7.6a17.78,17.78,0,0,0-3,10.79c.15,3.27-.37,6.65.4,9.81,1.27,5.2,3.64,9.63,8.67,12.63,4.18,2.49,8.35,1.17,12.52,1.58,1.89-2,5-1.61,7-3.34,1.26-1.09,2.28-1.06,3.28.25l.14.15c3.64,3.47,3.15,4.8-1.53,6.85a45.43,45.43,0,0,1-9,3,27.3,27.3,0,0,1-9.58-.05,24.63,24.63,0,0,1-9.47-3,26.64,26.64,0,0,1-5.69-5.34,21.84,21.84,0,0,1-4.67-10.16,67,67,0,0,1-1.5-9.32c-.28-4.49,1.18-8.74,2.36-12.82s4.18-7.53,7.72-10.5c6-5.06,13-5.55,20.07-5a23.42,23.42,0,0,1,13.44,5.44c.32.28.73.6.5,1-1,1.76-2,3.6-3.7,4.74a1.57,1.57,0,0,1-1.93-.21,5.54,5.54,0,0,0-4.14-1.87,2.18,2.18,0,0,1-.73-.34C174.8,82.52,174.8,82.52,170.67,82.52Z" transform="translate(-1.18 -41)"/><path class="cls-2" d="M52.5,103.22c0,3.69-.25,7.4.09,11.06.25,2.85-1.87,4.24-3,6.14s-4.18,2.3-5.67,4.33c-.19.25-.76.31-1.15.31-2.87,0-5.87.5-8.57-.2A7.66,7.66,0,0,1,28.71,121c-1.19-2.43-3.38-4.42-3.57-7.31-.43-6.39-1-12.87.27-19.16a15.55,15.55,0,0,1,5.11-9.23c3.93-3.16,8.66-3.58,13.22-2.37,2.42.65,4.63,2.58,6.6,4.52s2.31,4.37,2.19,7C52.39,97.34,52.5,100.29,52.5,103.22Z" transform="translate(-1.18 -41)"/><path class="cls-2" d="M113.78,110.31a20.2,20.2,0,0,0,0,3.48c.59,3.44-1.8,5.09-3.77,7.23-1.56,1.7-3.91,1.86-5.36,3.58-.57.68-1.68.42-2.56.43-1.24,0-2.48-.09-3.7,0-6.61.68-10.91-5.09-10.11-11.09.12-.88.19-1.77.27-2.66.34-3.86,2.86-5.67,6.19-7.39,5.53-2.87,11.16-1.29,16.73-1.77,1.82-.16,2.39.7,2.31,2.41-.09,1.91,0,3.83,0,5.74Z" transform="translate(-1.18 -41)"/></svg>