<svg id="Layer_1" data-name="Layer 1" xmlns="http://www.w3.org/2000/svg" viewBox="0 0 76.28 57.85"><defs><style>.cls-1{fill:#fff;}.cls-2{fill:#02040f;}</style></defs><rect width="76.28" height="57.85"/><rect class="cls-1" x="7.99" y="6.57" width="62.17" height="31.46"/><path class="cls-2" d="M60.46,49.89h6.8C75.54,49.89,80,54.81,80,63.54s-4.49,13.91-12.6,13.91h-7ZM67,74.55c6.26,0,9.37-4,9.37-11S73.27,52.79,67,52.79H64V74.55Z" transform="translate(-53.53 -39.21)"/><path class="cls-2" d="M86.71,49.89h4L100,77.45H96.24L91.5,62.07c-1-3.06-1.89-6.09-2.73-9.28H88.6C87.72,56,86.83,59,85.87,62.07L81,77.45H77.42ZM82.34,66.23H95v2.86H82.34Z" transform="translate(-53.53 -39.21)"/><path class="cls-2" d="M97.33,63.67c0-8.86,5.17-14.28,12.35-14.28a10.3,10.3,0,0,1,7.56,3.36l-2,2.22a7.4,7.4,0,0,0-5.55-2.47c-5.25,0-8.69,4.24-8.69,11.09s3.44,11.25,8.69,11.25a8,8,0,0,0,6.18-3l2,2.14a10.64,10.64,0,0,1-8.53,4C102.54,78,97.33,72.66,97.33,63.67Z" transform="translate(-53.53 -39.21)"/><rect class="cls-1" x="6.19" y="39.3" width="59.09" height="6.56"/><path d="M63.45,83c0-1.79.57-2.7,1.29-2.7s.89.72.89,1.67v2.08h-.22l0-.41h0c-.13.26-.36.49-.58.49s-.57-.35-.57-.92.41-1,1.16-1.19v-.1c0-.67-.19-1.23-.66-1.23s-1,.78-1,2.33.45,2.35,1,2.35a.76.76,0,0,0,.62-.31l.12.31a1,1,0,0,1-.75.39C64,85.77,63.45,84.81,63.45,83Zm1.9.28V82.4c-.6.14-.84.38-.84.81s.14.52.35.52S65.19,83.57,65.35,83.29Z" transform="translate(-53.53 -39.21)"/><path d="M66.14,83.06c0-1.1.46-1.79,1-1.79a.81.81,0,0,1,.65.43h0V79.77h.36v5h-.3l0-.45h0a1,1,0,0,1-.7.53C66.51,84.84,66.14,84.2,66.14,83.06Zm1.6.79v-1.7c-.2-.28-.38-.39-.56-.39-.37,0-.67.52-.67,1.3s.24,1.29.63,1.29C67.35,84.35,67.55,84.18,67.74,83.85Z" transform="translate(-53.53 -39.21)"/><path d="M68.86,83.88c0-.77.45-1.14,1.55-1.28,0-.46-.15-.85-.56-.85a1.21,1.21,0,0,0-.75.4L69,81.76a1.47,1.47,0,0,1,1-.49c.58,0,.87.55.87,1.4v2.09h-.3l0-.46h0a1.23,1.23,0,0,1-.84.54C69.19,84.84,68.86,84.48,68.86,83.88Zm1.55,0V83c-.91.11-1.19.4-1.19.84s.22.54.47.54S70.17,84.19,70.41,83.87Z" transform="translate(-53.53 -39.21)"/><path d="M71.37,81.35h.37l.49,1.93c.09.34.17.68.24,1h0c.07-.33.14-.67.23-1l.49-1.93h.36l-.89,3.41h-.41Z" transform="translate(-53.53 -39.21)"/><path d="M75.17,81.82h-1v-.47h1.36v3.41h-.37ZM75,80.19c0-.26.12-.45.29-.45s.29.19.29.45-.13.45-.29.45S75,80.46,75,80.19Z" transform="translate(-53.53 -39.21)"/><path d="M76.69,83.06c0-1.1.46-1.79,1-1.79a.81.81,0,0,1,.64.43h0l0-.62V79.77h.36v5h-.3l0-.45h0a.93.93,0,0,1-.7.53C77.06,84.84,76.69,84.2,76.69,83.06Zm1.6.79v-1.7c-.19-.28-.37-.39-.56-.39-.37,0-.67.52-.67,1.3s.24,1.29.63,1.29C77.9,84.35,78.1,84.18,78.29,83.85Z" transform="translate(-53.53 -39.21)"/><path d="M79.42,83.88c0-.77.44-1.14,1.55-1.28,0-.46-.16-.85-.57-.85a1.21,1.21,0,0,0-.75.4l-.14-.39a1.49,1.49,0,0,1,.95-.49c.59,0,.87.55.87,1.4v2.09H81l0-.46h0a1.23,1.23,0,0,1-.83.54C79.75,84.84,79.42,84.48,79.42,83.88Zm1.55,0V83c-.92.11-1.19.4-1.19.84s.22.54.46.54S80.72,84.19,81,83.87Z" transform="translate(-53.53 -39.21)"/><path d="M82.78,83.62V80.24H82v-.47h1.12v3.89c0,.49.17.7.42.7a.66.66,0,0,0,.4-.16l.09.44a.94.94,0,0,1-.57.2C83,84.84,82.78,84.42,82.78,83.62Z" transform="translate(-53.53 -39.21)"/><path d="M84.64,83.05c0-1.11.52-1.78,1.09-1.78s1,.64,1,1.6a3.32,3.32,0,0,1,0,.35H84.88v-.45h1.59l-.09.16c0-.81-.25-1.2-.64-1.2S85,82.2,85,83.05s.36,1.33.83,1.33a1,1,0,0,0,.66-.32l.13.38a1.16,1.16,0,0,1-.83.4C85.15,84.84,84.64,84.18,84.64,83.05Z" transform="translate(-53.53 -39.21)"/><path d="M88.07,83l-.75-1.64h.4l.34.75a5.79,5.79,0,0,0,.25.57h0c.08-.18.17-.39.24-.58l.32-.74h.38L88.52,83l.81,1.72h-.4L88.56,84l-.28-.61h0c-.09.2-.17.4-.26.62l-.35.78h-.39Z" transform="translate(-53.53 -39.21)"/><path d="M90,83.88c0-.77.45-1.14,1.55-1.28,0-.46-.15-.85-.57-.85a1.19,1.19,0,0,0-.74.4l-.15-.39a1.49,1.49,0,0,1,1-.49c.59,0,.87.55.87,1.4v2.09h-.3l0-.46h0a1.25,1.25,0,0,1-.84.54C90.3,84.84,90,84.48,90,83.88Zm1.55,0V83c-.91.11-1.19.4-1.19.84s.22.54.46.54S91.27,84.19,91.52,83.87Z" transform="translate(-53.53 -39.21)"/><path d="M92.66,81.35H93l0,.58h0c.23-.37.47-.66.81-.66.5,0,.73.48.73,1.37v2.12h-.36v-2c0-.64-.14-1-.49-1s-.43.21-.67.61v2.38h-.37Z" transform="translate(-53.53 -39.21)"/><path d="M95.16,83.06c0-1.1.46-1.79,1-1.79a.81.81,0,0,1,.65.43h0V79.77h.36v5h-.3l0-.45h0a1,1,0,0,1-.7.53C95.53,84.84,95.16,84.2,95.16,83.06Zm1.6.79v-1.7c-.2-.28-.38-.39-.56-.39-.37,0-.67.52-.67,1.3s.24,1.29.63,1.29C96.37,84.35,96.57,84.18,96.76,83.85Z" transform="translate(-53.53 -39.21)"/><path d="M97.83,83.05c0-1.11.52-1.78,1.09-1.78s1,.64,1,1.6a3.32,3.32,0,0,1,0,.35H98.07v-.45h1.59l-.09.16c0-.81-.25-1.2-.64-1.2s-.74.47-.74,1.32.36,1.33.84,1.33a.94.94,0,0,0,.65-.32l.13.38a1.16,1.16,0,0,1-.83.4C98.34,84.84,97.83,84.18,97.83,83.05Z" transform="translate(-53.53 -39.21)"/><path d="M100.81,81.35h.3l0,.81h0c.23-.55.56-.89,1-.89a.65.65,0,0,1,.42.14l-.08.5a.71.71,0,0,0-.4-.11c-.32,0-.62.25-.88,1v2h-.36Z" transform="translate(-53.53 -39.21)"/><path d="M103.16,83.06c0-1.14.54-1.79,1.19-1.79a.94.94,0,0,1,.78.5l-.18.37a.77.77,0,0,0-.59-.39c-.49,0-.83.53-.83,1.31s.34,1.3.82,1.3a.86.86,0,0,0,.66-.43l.17.38a1.08,1.08,0,0,1-.85.53C103.66,84.84,103.16,84.19,103.16,83.06Z" transform="translate(-53.53 -39.21)"/><path d="M105.79,83.47V81.35h.36v2c0,.64.14,1,.49,1s.43-.18.66-.63V81.35h.37v3.41h-.3l0-.6h0c-.22.4-.47.68-.8.68C106,84.84,105.79,84.37,105.79,83.47Z" transform="translate(-53.53 -39.21)"/><path d="M108.72,81.35h.3l0,.81h0c.22-.55.56-.89,1-.89a.65.65,0,0,1,.42.14l-.08.5a.71.71,0,0,0-.4-.11c-.32,0-.62.25-.87,1v2h-.37Z" transform="translate(-53.53 -39.21)"/><path d="M111.36,81.35h.3l0,.81h0c.22-.55.56-.89,1-.89a.65.65,0,0,1,.42.14l-.08.5a.71.71,0,0,0-.4-.11c-.32,0-.62.25-.88,1v2h-.36Z" transform="translate(-53.53 -39.21)"/><path d="M114.74,81.82h-1v-.47h1.35v3.41h-.37Zm-.14-1.63c0-.26.12-.45.29-.45s.29.19.29.45-.12.45-.29.45S114.6,80.46,114.6,80.19Z" transform="translate(-53.53 -39.21)"/><path d="M116.3,83.05c0-1.11.52-1.78,1.09-1.78s1,.64,1,1.6c0,.13,0,.26,0,.35h-1.81v-.45h1.59l-.09.16c0-.81-.25-1.2-.64-1.2s-.74.47-.74,1.32.36,1.33.83,1.33a.91.91,0,0,0,.65-.32l.14.38a1.18,1.18,0,0,1-.83.4C116.81,84.84,116.3,84.18,116.3,83.05Z" transform="translate(-53.53 -39.21)"/></svg>