<svg id="Layer_1" data-name="Layer 1" xmlns="http://www.w3.org/2000/svg" viewBox="0 0 127.54 53.92"><defs><style>.cls-1{fill:#047b51;}.cls-2{fill:#300858;}</style></defs><path class="cls-1" d="M138.65,92c.25-.94.89-.9,1.56-.55,1.56.82,3.11,1.67,4.64,2.53,2.62,1.47,5.2,3,7.84,4.41,1.51.82,1.82,1.52.94,3.06a105.13,105.13,0,0,1-13.59,19,32.44,32.44,0,0,1-9.55,7.13A33.64,33.64,0,0,1,115.15,131c-3.84,0-7.64-.06-11.28-1.36a27.45,27.45,0,0,1-6.59-3.45c-2.42-1.73-4.92-3.36-7.39-5,1.27-.8,3-.41,4.15-1.57a22.18,22.18,0,0,1,2.38-1.76c.66-.49,1.16-.42,1.44.39.55,1.56,1.75,2.19,3.2,2.9,1.72.84,1.8-.63,2.25-1.24s1.06-1.75-.26-2.53c-.73-.44-1.65-1-1.65-2,0-3-.33-6.06.18-9.08,2.15,1.07,3.81,2.86,6,4,2.43,1.27,4.88,2.32,7.71,1.81.14.28.3.55.43.84a15.26,15.26,0,0,0,6.27,7.11,15.65,15.65,0,0,0,5,1.46,11.48,11.48,0,0,0,5.12-.08,32.38,32.38,0,0,0,5.08-1.66c2.36-1.11,2.77-1.88,1-3.8-.21-.23-.44-.45-.67-.66a.83.83,0,0,0-1.13-.06,13.15,13.15,0,0,1-8.13,2.3,8.37,8.37,0,0,1-7.5-6.57c.57-.24,1.15-.44,1.7-.73a30.9,30.9,0,0,0,8.92-7.37,43.6,43.6,0,0,0,5.05-7c1.69-.08,2.15-1.61,3-2.64C140,92.57,138.74,92.5,138.65,92Z" transform="translate(-26.58 -77.12)"/><path class="cls-2" d="M68.11,106.1c-.32,4.33-.07,8.67-.15,13,0,.86.28,1.93-1.14,1.92-2.59,0-3.62.16-3.63-1.71a4,4,0,0,0-.14-.92c-.24-.86-.63-1-1.27-.29-3.41,3.91-7.69,4.14-12.27,2.77A11.85,11.85,0,0,1,47,119.4a1.33,1.33,0,0,0-.55-1.2,9.63,9.63,0,0,1-1.63-2c-1.18-2-1.23-4.44-2-6.6-1.41-4,.47-7.79.79-11.67,0-.22.34-.4.42-.63.44-1.23,1.44-2.22,1.48-3.6.64-1.14,1.79-1.72,2.74-2.52l.11,0v-.12c2.67-1.45,5.41-2.65,8.57-2.35.14.22.24.58.42.62A9.87,9.87,0,0,1,62,91.84c.59.54.75-.16.74-.64,0-1.24-.05-2.49-.07-3.73.54-2.31.16-4.66.23-7,.1-3.6-.64-3.42,3.45-3.33,1.33,0,1.51.73,1.5,1.76,0,2.81-.16,5.62.07,8.42a5.1,5.1,0,0,0-.21,1.06q0,8.11,0,16.21A3.24,3.24,0,0,0,68.11,106.1Zm-4.84-.61h0c0-2.35,0-4.71,0-7.06,0-.51.14-1.09-.38-1.45-1.36-.93-2.31-2.34-3.86-3.07a7.67,7.67,0,0,0-5.94-.34,8.12,8.12,0,0,0-5.29,7c-.35,4.52-1,9.21,1.11,13.56.79,1.64,1.79,3.46,3.77,3.52,2.49.07,5.1.79,7.43-1.32,1.68-1.53,3.43-2.67,3.16-5.33C63.12,109.17,63.27,107.32,63.27,105.49Z" transform="translate(-26.58 -77.12)"/><path class="cls-2" d="M101.58,106.33c-.51,3-.2,6-.18,9.08,0,.93.92,1.53,1.65,2,1.32.78.78,1.83.26,2.53s-.53,2.08-2.25,1.24c-1.45-.71-2.65-1.34-3.2-2.9-.28-.81-.78-.88-1.44-.39A22.18,22.18,0,0,0,94,119.62c-1.17,1.16-2.88.77-4.15,1.57-3.74.47-7.35.48-10.25-2.56-1.8-1.9-2.29-4.26-2.6-6.71a5.87,5.87,0,0,0-.53-2.4c.44-.81.76-1.68,1.15-2.51,2-4.26,5.54-5.77,9.89-6.09a2.55,2.55,0,0,0,1.2-.2c1.88-1.37,3.86-.73,5.83-.36.62.12,1.23.81,1.85.1a2,2,0,0,0,.19-2.31l-.11-.86c.48-.84-.41-.94-.74-1.34l-.9-1.22a2.32,2.32,0,0,0-2.44-1.24,19.59,19.59,0,0,1-4.33,0C86,92.43,84,93.3,82,93.9c-.77.23-1.09.5-1.18-.52a4.82,4.82,0,0,1,.94-2.63c.06,0,0-.19.08-.29a28.5,28.5,0,0,1,12.92-.56c3.27.57,6.42,4.38,6.61,8C101.51,100.72,101.51,103.53,101.58,106.33Zm-9.51-1.94h0a12.53,12.53,0,0,0-2.81,0c-2.23.51-4.55.74-6,3-1.75,2.77-1.39,7,1.14,9,.53.43.72,1.32,1.66,1.27,2.6-.14,5.34.62,7.58-1.46,1.23-1.14,3-1.92,3.2-3.78.21-2.28,0-4.6.06-6.9,0-.85-.35-1.25-1.21-1.23C94.48,104.41,93.27,104.39,92.07,104.39Z" transform="translate(-26.58 -77.12)"/><path class="cls-1" d="M81.83,90.46c0,.1,0,.24-.08.29a4.82,4.82,0,0,0-.94,2.63c.09,1,.41.75,1.18.52,2-.6,4-1.47,6.12-.42-.53.55-.62.92.15,1.45C90.14,96.22,92,97.62,93.73,99s2.4,1.38,2.89-.89a2,2,0,0,1-.19,2.31c-.62.71-1.23,0-1.85-.1-2-.37-4-1-5.83.36a2.55,2.55,0,0,1-1.2.2c-4.35.32-7.91,1.83-9.89,6.09-.39.83-.71,1.7-1.15,2.51a37.35,37.35,0,0,0-6.62-3,10.53,10.53,0,0,0-1.78-.39,3.24,3.24,0,0,1-.38-1.5q0-8.1,0-16.21A5.1,5.1,0,0,1,68,87.33c3.17-.33,6.17.71,9.15,1.44A28,28,0,0,1,81.83,90.46Z" transform="translate(-26.58 -77.12)"/><path class="cls-1" d="M45.51,93.68c0,1.38-1,2.37-1.48,3.6-.08.23-.41.41-.42.63-.32,3.88-2.2,7.62-.79,11.67.75,2.16.8,4.57,2,6.6a9.63,9.63,0,0,0,1.63,2,1.33,1.33,0,0,1,.55,1.2c-1.53.21-1.95,1.6-2.64,2.61-1,1.4-1.67,3-2.56,4.4-.41.67-.83,1.14-1.84.41a45,45,0,0,0-6.09-3.27c-2.17-1.11-4.51-1.91-6.49-3.4a1.5,1.5,0,0,1-.45-2.25c1.4-2.32,2.79-4.65,4.11-7a63.85,63.85,0,0,1,7.2-9.84C40.43,98.39,42.59,95.65,45.51,93.68Z" transform="translate(-26.58 -77.12)"/><path class="cls-2" d="M120.8,111a8.37,8.37,0,0,0,7.5,6.57,13.15,13.15,0,0,0,8.13-2.3.83.83,0,0,1,1.13.06c.23.21.46.43.67.66,1.72,1.92,1.31,2.69-1,3.8a32.38,32.38,0,0,1-5.08,1.66,11.48,11.48,0,0,1-5.12.08,15.65,15.65,0,0,1-5-1.46,15.26,15.26,0,0,1-6.27-7.11c-.13-.29-.29-.56-.43-.84a12,12,0,0,0-.47-4,17.91,17.91,0,0,1,.48-7.76,13.32,13.32,0,0,1,7.5-9.56c3.92-1.86,7.88-1.48,11.86-.75,1.42.27,2.7,1.27,4,1.94.09.55,1.3.62.79,1.26-.82,1-1.28,2.56-3,2.64-.41-.29-.64-.74-1.16-1a15.73,15.73,0,0,0-6.78-1.32c-3.5,0-5.55,1.89-7.13,4.68s-1.44,5.91-1.33,9C120.11,108.48,120,109.84,120.8,111Z" transform="translate(-26.58 -77.12)"/><path class="cls-1" d="M62.71,87.47c0,1.24.06,2.49.07,3.73,0,.48-.15,1.18-.74.64a9.87,9.87,0,0,0-4.69-2.49c-.18,0-.28-.4-.42-.62A10.12,10.12,0,0,1,62.71,87.47Z" transform="translate(-26.58 -77.12)"/><polygon class="cls-1" points="21.77 13.96 21.77 14.09 21.66 14.04 21.68 13.95 21.77 13.96"/><path class="cls-1" d="M63.27,105.49c0,1.83-.15,3.68,0,5.49.27,2.66-1.48,3.8-3.16,5.33-2.33,2.11-4.94,1.39-7.43,1.32-2-.06-3-1.88-3.77-3.52-2.1-4.35-1.46-9-1.11-13.56a8.12,8.12,0,0,1,5.29-7,7.67,7.67,0,0,1,5.94.34c1.55.73,2.5,2.14,3.86,3.07.52.36.37.94.38,1.45,0,2.35,0,4.71,0,7.06Zm-.37,4.93c0-.88,0-1.45,0-2,0-1.3-.33-1.66-1.79-1.32-4.27,1-7.33,3.74-10.25,6.73a1.27,1.27,0,0,0-.18,1.84,4.14,4.14,0,0,0,2.66,1.5c2.09,0,4.19.42,6.11-1.1S63.41,113.07,62.9,110.42Z" transform="translate(-26.58 -77.12)"/><path class="cls-1" d="M92.07,104.39c1.2,0,2.41,0,3.61,0,.86,0,1.22.38,1.21,1.23,0,2.3.15,4.62-.06,6.9-.17,1.86-2,2.64-3.2,3.78-2.24,2.08-5,1.32-7.58,1.46-.94,0-1.13-.84-1.66-1.27-2.53-2-2.89-6.25-1.14-9,1.46-2.3,3.78-2.53,6-3a12.53,12.53,0,0,1,2.81,0Z" transform="translate(-26.58 -77.12)"/><path class="cls-1" d="M94.87,94.73c-1.07.1-1.69-.7-2.44-1.24A2.32,2.32,0,0,1,94.87,94.73Z" transform="translate(-26.58 -77.12)"/><path class="cls-1" d="M96.51,97.29c-.37-.38-.89-.68-.74-1.35C96.1,96.35,97,96.45,96.51,97.29Z" transform="translate(-26.58 -77.12)"/></svg>