<svg id="Layer_1" data-name="Layer 1" xmlns="http://www.w3.org/2000/svg" viewBox="0 0 89 68"><defs><style>.cls-1{fill:#fdfbfb;}.cls-2{fill:#3f3a3c;}.cls-3{fill:#716d6f;}.cls-4{fill:#ef4941;}.cls-5{fill:#ef4b44;}.cls-6{fill:#ef4840;}.cls-7{fill:#797576;}.cls-8{fill:#b6b5b5;}.cls-9{fill:#d1abaa;}.cls-10{fill:#868283;}.cls-11{fill:#403b3c;}.cls-12{fill:#3c3638;}.cls-13{fill:#e0cccc;}.cls-14{fill:#6e696b;}.cls-15{fill:#fefafa;}.cls-16{fill:#fdf2f1;}</style></defs><path class="cls-1" d="M56,108V66h89v68H56V111l1.91.16,1.14,1.73.81-2-1.08-2.29Zm39.05,1.06,1.8,1.77,2,.21.28.12.27-.12,2.52.82,2-2.91c5.68-.4,7-1.78,7-7.47,0-3,.12-6,0-9-.32-6.57-4.31-10.14-10.83-9.29-3,.39-6,1.7-8.91,2.59l.27,2a15.83,15.83,0,0,0,4.16-.3c6.29-2.2,9.44-1.08,10.8,4.26-3.4.74-6.83,1.32-10.17,2.24S90,96.75,89.9,100.8c-.06,3.8,2.39,5.59,5.65,6.63ZM121,112l2-1.53-.06.09,1.11-.92-.58-.54-.77.89L118,109l-.29.8ZM77.08,84.88c-.8-.23-1.27-.33-1.71-.5-6.19-2.4-11.21-.79-14,4.48-3.1,5.88-1.59,14,3.19,17.19,5.55,3.73,7.52,3.56,12.16-1l4.14,2.75V73.19C77.39,73.3,77.39,73.3,77.08,84.88Zm62.71,2.32c-6.12-5.08-12.57-5.28-17.63-1.24-4.47,3.57-6,10.89-2.61,15.75a20.17,20.17,0,0,0,8,6.75c1.85.81,4.95-.71,7.27-1.7,1.73-.74,3.1-2.32,4.62-3.53l-1-1.32a13.29,13.29,0,0,0-1.8.51c-5.8,2.57-10,2.21-12.65-1.34S121,93.51,123.72,90c3.19-4.17,7.45-4.32,12.07-2.13C136.61,88.26,138,87.54,139.79,87.2Zm-46.45,22-.18.33h.7c-.06-.11-.08-.26-.18-.33S93.46,109.25,93.34,109.25Z" transform="translate(-56 -66)"/><path class="cls-2" d="M57.91,111.16,56,111v-2l2.78-.39,1.08,2.29Z" transform="translate(-56 -66)"/><path class="cls-3" d="M58.78,108.61,56,109v-1Z" transform="translate(-56 -66)"/><path class="cls-4" d="M77.08,84.88c.31-11.58.31-11.58,3.8-11.69v34.58L76.74,105c-4.64,4.59-6.61,4.76-12.16,1-4.78-3.22-6.29-11.31-3.19-17.19,2.77-5.27,7.79-6.88,14-4.48C75.81,84.55,76.28,84.65,77.08,84.88Zm.07,10.2c0-6.63-1.35-8.57-5.93-8.49-4.26.07-7.25,3.82-7.2,9s2.71,8.6,6.91,8.53C75.52,104.05,77.15,101.68,77.15,95.08Z" transform="translate(-56 -66)"/><path class="cls-5" d="M95.56,107.43c-3.27-1-5.72-2.83-5.66-6.63.07-4,2.87-5.82,6.25-6.76s6.77-1.5,10.17-2.24c-1.36-5.34-4.51-6.46-10.8-4.26a15.83,15.83,0,0,1-4.16.3l-.27-2c3-.89,5.88-2.2,8.91-2.59,6.52-.85,10.51,2.72,10.83,9.29.15,3,0,6,0,9,0,5.69-1.28,7.07-7,7.47l-4-1-.9,0h0l-1.75-.26ZM106.41,94.5c-3.69.94-7.09,1.51-10.22,2.76a4.56,4.56,0,0,0-2,3.88c.2,1.14,2,2.59,3.3,2.87C103.31,105.27,107.06,101.67,106.41,94.5Z" transform="translate(-56 -66)"/><path class="cls-6" d="M139.79,87.2c-1.82.34-3.18,1.06-4,.67-4.62-2.19-8.88-2-12.07,2.13-2.7,3.51-2.45,7.5.23,11.08s6.85,3.91,12.65,1.34a13.29,13.29,0,0,1,1.8-.51l1,1.32c-1.52,1.21-2.89,2.79-4.62,3.53-2.32,1-5.42,2.51-7.27,1.7a20.17,20.17,0,0,1-8-6.75c-3.42-4.86-1.86-12.18,2.61-15.75C127.22,81.92,133.67,82.12,139.79,87.2Z" transform="translate(-56 -66)"/><path class="cls-7" d="M99.89,107.94l4,1-2,2.91L99.42,111l-.27.12-.28-.11c0-1,.07-2,.11-3.07h0l.45.06Z" transform="translate(-56 -66)"/><path class="cls-8" d="M123,110.54l.06-.09L121,112l-3.37-2.2.29-.8,4.81,1A.4.4,0,0,1,123,110.54Z" transform="translate(-56 -66)"/><path class="cls-9" d="M99,108c0,1-.07,2-.11,3.07l-2-.22c0-.56.08-1.12.13-1.68l.26-1.44Z" transform="translate(-56 -66)"/><path class="cls-10" d="M57.91,111.16l2-.26-.81,2Z" transform="translate(-56 -66)"/><path class="cls-11" d="M97,109.15c0,.56-.09,1.12-.13,1.68l-1.8-1.77Z" transform="translate(-56 -66)"/><path class="cls-12" d="M99.42,111l2.52.82Z" transform="translate(-56 -66)"/><path class="cls-13" d="M97,109.15l-1.93-.09c.16-.54.33-1.09.5-1.63l1.68.29C97.15,108.19,97.06,108.67,97,109.15Z" transform="translate(-56 -66)"/><path class="cls-14" d="M121,112l2-1.53Z" transform="translate(-56 -66)"/><path class="cls-11" d="M93.34,109.25c.12,0,.27,0,.34,0s.12.22.18.33h-.7Z" transform="translate(-56 -66)"/><path class="cls-14" d="M122.76,110l.77-.89.58.54-1.11.92A.4.4,0,0,0,122.76,110Z" transform="translate(-56 -66)"/><path class="cls-15" d="M77.15,95.08c0,6.6-1.63,9-6.22,9-4.2.07-6.86-3.21-6.91-8.53s2.94-8.93,7.2-9C75.8,86.51,77.15,88.45,77.15,95.08Z" transform="translate(-56 -66)"/><path class="cls-16" d="M106.41,94.5c.65,7.17-3.1,10.77-9,9.51-1.31-.28-3.1-1.73-3.3-2.87a4.56,4.56,0,0,1,2-3.88C99.32,96,102.72,95.44,106.41,94.5Z" transform="translate(-56 -66)"/><path class="cls-9" d="M99.89,107.94l-.45.09L99,108Z" transform="translate(-56 -66)"/></svg>