<svg id="Layer_1" data-name="Layer 1" xmlns="http://www.w3.org/2000/svg" viewBox="0 0 202.97 148"><defs><style>.cls-1{fill:#fefefe;}.cls-2{fill:#0f6d70;}.cls-3{fill:#02050e;}</style></defs><path class="cls-1" d="M201.49,190h-203V42h203ZM130,120.35c-.85-3.14-1.6-6.32-2.58-9.43-1-3.27-2.36-6.45-3.44-9.72-1-3.07-1.86-6.21-2.85-9.3-.76-2.35-1.61-4.68-2.46-7-1.17-3.14-2.49-6.24-3.53-9.42s-1.74-6.67-2.82-9.94c-1.32-4-3.55-6.75-8.4-5.47-.65.17-1.44-.16-2.09,0A2.85,2.85,0,0,0,100,61.22c-1.48,3.48-2.83,7-4.16,10.56-.13.35.16.87.26,1.31l-.32,1.78q-2.17,5.84-4.33,11.66l.18.08-.08.91c-1,2.38-2.19,4.7-3.06,7.14-1.41,3.92-2.62,7.92-3.94,11.88-.92,2.77-1.86,5.54-2.85,8.29-1.27,3.47-2.6,6.92-3.9,10.37l-1.2,3.23a25.08,25.08,0,0,1-1.28-3.58,15,15,0,0,1,0-3.15c0-19.17,0-38.35,0-57.52,0-2.19-.91-2.79-2.9-2.78-7.31.05-14.62.16-21.93,0-9.8-.28-19.59-.87-29.39-1.19-.74,0-1.53,1-2.3,1.61l-.18.78a3.55,3.55,0,0,0-.49,1.21q0,32.31,0,64.63c0,2,.86,3,3.12,2.95Q50.47,131,79.74,131c3.48,0,7,.58,7.08-4.54,0-.4.69-.76.78-1.19.25-1.15.34-2.33.5-3.5l.2-1.41c.74-1.7,1.87-3.36,2.13-5.14.46-3.15,2.56-5.41,5.68-5.4,6.26,0,12.52-.07,18.78,0,.93,0,2.43.68,2.68,1.39,1.66,4.63,2.85,9.43,4.62,14,.78,2,2.47,5.2,3.89,5.27,14.91.8,29.86,1.23,44.8,1.45,6.57.09,13.16-.43,19.71-1,1-.08,2.41-1.92,2.5-3,.31-3.78.1-7.61.1-11.43,0-17.35.07-34.71-.11-52.07,0-1-1.79-2.49-3-2.81a48.11,48.11,0,0,0-8.64-1.24c-4.25-.31-8.51-.39-12.77-.57l-1.38.24a8,8,0,0,0-2.17-.12c-2,.41-3.9,1.34-5.86,1.4-7.09.24-14.2.56-21.27.16-4.35-.25-5,1.31-5,5.14.19,17.54.12,35.09.09,52.64a50.16,50.16,0,0,1-.75,5.76L130,121.63Z" transform="translate(1.49 -42)"/><path class="cls-2" d="M168.67,59.8c4.26.18,8.52.26,12.77.57a48.11,48.11,0,0,1,8.64,1.24c1.21.32,3,1.83,3,2.81.18,17.36.11,34.72.11,52.07,0,3.82.21,7.65-.1,11.43-.09,1.12-1.54,3-2.5,3-6.55.56-13.14,1.08-19.71,1-14.94-.22-29.89-.65-44.8-1.45-1.42-.07-3.11-3.24-3.89-5.27-1.77-4.58-3-9.38-4.62-14-.25-.71-1.75-1.37-2.68-1.39-6.26-.12-12.52,0-18.78,0-3.12,0-5.22,2.25-5.68,5.4-.26,1.78-1.39,3.44-2.13,5.15.65-2.81.87-5.83,2.11-8.34.84-1.68,3.08-3.63,4.8-3.74,6.72-.43,13.48-.24,20.23-.11a3.48,3.48,0,0,1,2.69,1.48c1.74,4.81,3.11,9.75,4.83,14.57.68,1.9,1.57,4.06,3.05,5.21,1,.79,3.24.07,4.91-.08.47,0,1.19-.36,1.29-.69s-.31-1-.47-1.49L130,121.63l2.37,3.39a50.16,50.16,0,0,0,.75-5.76c0-17.55.1-35.1-.09-52.64,0-3.83.63-5.39,5-5.14,7.07.4,14.18.08,21.27-.16,2-.06,3.89-1,5.86-1.4a8,8,0,0,1,2.17.12c-.76.36-1.51.76-2.29,1.07-3.27,1.3-6.89,2-9.74,4C148,69.92,144.05,77.48,142.7,85.68c-2.14,13-1,25.71,8.17,36.41,2.95,3.44,6.4,6.33,10.86,7.08,4.18.71,8.53.54,12.8.62,6.15.11,11.79-1,16.27-5.89,2.76-3,.54-4.73-1.25-6.4-.47-.44-2.58.25-3.48,1-3.82,3.17-8.13,5.25-13.06,5.23-2.53,0-5-1.23-7.59-1.82A15.41,15.41,0,0,1,155,113.28,40.8,40.8,0,0,1,151.07,97c-.06-5.87,1.57-11.9,3.29-17.61s6.46-9.35,11.62-11c6.55-2,13.49-2,19.14,3.52.58.58,3.65-.06,3.76-.55.39-1.68,3.91-2.76,1.18-5.09a26.57,26.57,0,0,0-15.63-6.1C172.51,60,170.59,59.92,168.67,59.8Z" transform="translate(1.49 -42)"/><path class="cls-3" d="M18.61,62.56l.18-.78a16,16,0,0,1,2.26-.26c7.64.14,15.29.37,22.93.47,5.55.08,10,2.6,14.06,6,6.7,5.61,9,13.51,9.82,21.47,1,9.58.15,19.21-5.49,27.81-4.26,6.5-10.06,10.89-17.52,11.77-8.11.95-16.4.47-24.61.48-.45,0-1.28-1.28-1.28-2-.06-20.51,0-41-.05-61.52C18.91,64.9,18.72,63.73,18.61,62.56ZM28,95c0,8-.16,16,.16,24,.05,1.26,2.35,3.56,3.41,3.45,5.14-.56,10.48-1.09,15.25-2.92,7.38-2.81,10.58-9.7,11.08-16.85.47-6.76,1.55-13.75-1.57-20.64-1.74-3.83-3.48-7.24-6.78-9.65-5.56-4.07-12.06-4.26-18.63-4-2.18.08-3,.87-3,3C28,79.28,27.94,87.14,28,95Z" transform="translate(1.49 -42)"/><path class="cls-2" d="M18.61,62.56c.11,1.17.3,2.34.3,3.52,0,20.5,0,41,.05,61.52,0,.68.83,2,1.28,2,8.21,0,16.5.47,24.61-.48,7.46-.88,13.26-5.27,17.52-11.77,5.64-8.6,6.44-18.23,5.49-27.81-.79-8-3.12-15.86-9.82-21.47-4.11-3.44-8.51-6-14.06-6-7.64-.1-15.29-.33-22.93-.47a16,16,0,0,0-2.26.26c.77-.56,1.56-1.64,2.3-1.61,9.8.32,19.59.91,29.39,1.19,7.31.2,14.62.09,21.93,0,2,0,2.91.59,2.9,2.78,0,19.17,0,38.35,0,57.52a15,15,0,0,0,0,3.15,25.08,25.08,0,0,0,1.28,3.58l1.2-3.23c1.3-3.45,2.63-6.9,3.9-10.37,1-2.75,1.93-5.52,2.85-8.29,1.32-4,2.53-8,3.94-11.88.87-2.44,2-4.76,3.06-7.14a12.67,12.67,0,0,1-.32,2.78c-1.16,3.34-2.61,6.59-3.63,10s-1.63,6.79-2.43,10.18a4.17,4.17,0,0,1-.26.57c-1.38,3.44-2.76,6.89-4.16,10.32a31.49,31.49,0,0,0-1.38,3.24c-.4,1.42-.58,2.91-.85,4.37.9.13,1.81.27,2.71.38a5.17,5.17,0,0,0,2.28.16,3.94,3.94,0,0,0,2-1.7c1-2,1.72-4,2.56-6.06-.16,1.17-.25,2.35-.5,3.5-.09.43-.77.79-.78,1.19-.09,5.12-3.6,4.53-7.08,4.54q-29.26.06-58.52.39c-2.26,0-3.12-.95-3.12-2.95q0-32.31,0-64.63A3.55,3.55,0,0,1,18.61,62.56Z" transform="translate(1.49 -42)"/><path class="cls-3" d="M168.67,59.8c1.92.12,3.84.22,5.76.37a26.57,26.57,0,0,1,15.63,6.1c2.73,2.33-.79,3.41-1.18,5.09-.11.49-3.18,1.13-3.76.55-5.65-5.53-12.59-5.56-19.14-3.52-5.16,1.6-9.94,5.35-11.62,11S151,91.08,151.07,97A40.8,40.8,0,0,0,155,113.28a15.41,15.41,0,0,0,10.43,8.62c2.54.59,5.06,1.82,7.59,1.82,4.93,0,9.24-2.06,13.06-5.23.9-.74,3-1.43,3.48-1,1.79,1.67,4,3.38,1.25,6.4-4.48,4.91-10.12,6-16.27,5.89-4.27-.08-8.62.09-12.8-.62-4.46-.75-7.91-3.64-10.86-7.08-9.16-10.7-10.31-23.42-8.17-36.41,1.35-8.2,5.3-15.76,12.56-20.62,2.85-1.91,6.47-2.65,9.74-4,.78-.31,1.53-.71,2.29-1.07Z" transform="translate(1.49 -42)"/><path class="cls-3" d="M88.1,121.73c-.84,2-1.58,4.1-2.56,6.06a3.94,3.94,0,0,1-2,1.7,5.17,5.17,0,0,1-2.28-.16c-.9-.11-1.81-.25-2.71-.38.27-1.46.45-2.95.85-4.37a31.49,31.49,0,0,1,1.38-3.24c1.4-3.43,2.78-6.88,4.16-10.32a4.17,4.17,0,0,0,.26-.57c.8-3.39,1.42-6.84,2.43-10.18s2.47-6.63,3.63-10a12.67,12.67,0,0,0,.32-2.78c0-.3,0-.6.08-.9.86-2.15,1.78-4.27,2.56-6.44.62-1.74,1.06-3.54,1.59-5.31.1-.59.21-1.19.31-1.78.8-1.82,1.61-3.65,2.42-5.47a37.22,37.22,0,0,1,2.76-5.8c.28-.42,2.14.38,3.26.34,2.89-.08,6.48-1.34,5.6,3.92,0,0,0,.12.08.19,1.29,2.84,2.73,5.62,3.8,8.55.77,2.07,0,4.29,1.94,6.48,1.74,2,1.74,5.47,2.6,8.26,1.5,4.91,3.08,9.8,4.63,14.7.07.19.22.36.3.55,1.28,3.21,2.53,6.43,3.85,9.62.82,2,1.74,3.95,2.62,5.92,0,.43,0,.85,0,1.28l1.76,5.51c.16.51.59,1.07.47,1.49s-.82.65-1.29.69c-1.67.15-3.89.87-4.91.08-1.48-1.15-2.37-3.31-3.05-5.21-1.72-4.82-3.09-9.76-4.83-14.57a3.48,3.48,0,0,0-2.69-1.48c-6.75-.13-13.51-.32-20.23.11-1.72.11-4,2.06-4.8,3.74-1.24,2.51-1.46,5.53-2.11,8.34C88.23,120.79,88.17,121.26,88.1,121.73Zm21.18-40.44-.11-.79c.43-2.35.82-4.69-2-6l-.2-1.17a21.18,21.18,0,0,0-.25-4.45c-.11-.42-2.26-.85-2.35-.68a41,41,0,0,0-3.18,7C100,79.08,99.28,83,98.29,86.91c-.53,2.09-1.14,4.15-1.81,6.2-.24.74-.93,1.36-1.07,2.1a38.08,38.08,0,0,0-.78,6.62c0,.27,2.12.78,3.27.81,4.85.1,9.69.1,14.53.07,1.08,0,2.92-.06,3.08-.53a7.29,7.29,0,0,0,.06-4.19c-1.16-3.7-2.59-7.31-4-10.95C110.88,85.11,110.06,83.21,109.28,81.29Z" transform="translate(1.49 -42)"/><path class="cls-2" d="M130,120.35c-.88-2-1.8-3.93-2.62-5.92-1.32-3.19-2.57-6.41-3.85-9.62-.08-.19-.23-.36-.3-.55-1.55-4.9-3.13-9.79-4.63-14.7-.86-2.79-.86-6.27-2.6-8.26-1.92-2.19-1.17-4.41-1.94-6.48-1.07-2.93-2.51-5.71-3.8-8.55,0-.07-.09-.14-.08-.19.88-5.26-2.71-4-5.6-3.92-1.12,0-3-.76-3.26-.34a37.22,37.22,0,0,0-2.76,5.8c-.81,1.82-1.62,3.65-2.42,5.47-.09-.44-.38-1-.25-1.31,1.33-3.55,2.68-7.08,4.16-10.56a2.85,2.85,0,0,1,1.78-1.12c.65-.19,1.44.14,2.09,0,4.85-1.28,7.08,1.52,8.4,5.47,1.08,3.27,1.76,6.67,2.82,9.94s2.36,6.28,3.53,9.42c.85,2.32,1.7,4.65,2.46,7,1,3.09,1.82,6.23,2.85,9.3,1.08,3.27,2.4,6.45,3.44,9.72C128.36,114,129.11,117.21,130,120.35Z" transform="translate(1.49 -42)"/><path class="cls-2" d="M95.79,74.87c-.53,1.77-1,3.57-1.59,5.31-.78,2.17-1.7,4.29-2.56,6.44-.06,0-.19-.09-.18-.09Q93.61,80.69,95.79,74.87Z" transform="translate(1.49 -42)"/><path class="cls-2" d="M28,95c0-7.87,0-15.73,0-23.59,0-2.17.78-3,3-3,6.57-.24,13.07,0,18.63,4,3.3,2.41,5,5.82,6.78,9.65,3.12,6.89,2,13.88,1.57,20.64-.5,7.15-3.7,14-11.08,16.85-4.77,1.83-10.11,2.36-15.25,2.92-1.06.11-3.36-2.19-3.41-3.45C27.79,111,28,103,28,95Z" transform="translate(1.49 -42)"/><path class="cls-1" d="M107,73.37l.2,1.16q1,3,2,6c0,.27.07.53.11.79a8.44,8.44,0,0,0,0,2.3c.64,2.4,1.42,4.77,2.16,7.15.79,2.58,1.18,5.4,2.51,7.67,1.78,3,.2,3.27-2,3.31-4.63.07-9.27-.07-13.9.08-3.16.1-3.19-1.37-2.28-3.68C97,95,98.28,91.83,99.29,88.6c1.56-4.94,2.85-10,4.34-14.92a25.63,25.63,0,0,1,1.67-3.57Z" transform="translate(1.49 -42)"/><path class="cls-2" d="M107,73.37l-1.68-3.26a25.63,25.63,0,0,0-1.67,3.57c-1.49,5-2.78,10-4.34,14.92-1,3.23-2.32,6.37-3.56,9.52-.91,2.31-.88,3.78,2.28,3.68,4.63-.15,9.27,0,13.9-.08,2.23,0,3.81-.29,2-3.31-1.33-2.27-1.72-5.09-2.51-7.67-.74-2.38-1.52-4.75-2.16-7.15a8.44,8.44,0,0,1,0-2.3c.78,1.92,1.6,3.82,2.33,5.75,1.37,3.64,2.8,7.25,4,10.95a7.29,7.29,0,0,1-.06,4.19c-.16.47-2,.52-3.08.53-4.84,0-9.68,0-14.53-.07-1.15,0-3.27-.54-3.27-.81a38.08,38.08,0,0,1,.78-6.62c.14-.74.83-1.36,1.07-2.1.67-2,1.28-4.11,1.81-6.2,1-3.88,1.75-7.83,2.91-11.65a41,41,0,0,1,3.18-7c.09-.17,2.24.26,2.35.68A21.18,21.18,0,0,1,107,73.37Z" transform="translate(1.49 -42)"/><path class="cls-2" d="M109.17,80.5q-1-3-2-6C110,75.81,109.6,78.15,109.17,80.5Z" transform="translate(1.49 -42)"/></svg>