<svg id="Layer_1" data-name="Layer 1" xmlns="http://www.w3.org/2000/svg" viewBox="0 0 215 154.98"><defs><style>.cls-1{fill:#e6ebee;}.cls-2{fill:#fefefe;}.cls-3{fill:#03040d;}</style></defs><path class="cls-1" d="M14.5,27.53H188.89a39.77,39.77,0,0,1,.86,5.87q.08,62.3,0,124.6c0,3.52-.92,4.25-4.49,3.65a13.82,13.82,0,0,0-2.23-.09H20.36a13.82,13.82,0,0,0-2.23.08c-3.68.61-4.53-.09-4.53-3.82q0-59.28,0-118.57C13.64,35.35,14.2,31.44,14.5,27.53ZM86.37,72.65c-.65-1.05-1.12-1.7-1.47-2.41C83.4,67.16,82,64,80.44,61c-2.9-5.59-8-8.79-13.49-11.1C63.3,48.33,59,47.88,55,47.62c-5.71-.36-11.47,0-17.2-.11-2,0-2.7.79-2.7,2.59v1.79q0,32.92-.1,65.87c0,1.63.65,2,2.13,2,7.6-.08,15.2-.07,22.8-.18a13.8,13.8,0,0,0,3.66-.76c2.21-.68,4.39-1.46,6.65-2.23.37,2.81.58,3,3.11,3.2.74.06,1.49,0,2.23,0,1.27,0,2.82.41,3.7-.17s.85-2.16,1.24-3.31c.07-.21.18-.41.25-.62,1.3-4.19,2.71-8.35,3.85-12.58.69-2.56,2.74-4.82,5.09-4.83,7,0,14-.07,21,0a3.17,3.17,0,0,1,2.51,1.38c1.74,4.68,3.4,9.41,4.75,14.23,1,3.5,1.61,6.61,6.56,5.82,1.76-.28,3.74.53,5.06-1.47.19-.3,1.24-.25,1.79-.07,2.92,1,5.74,2.48,8.74,3a27.75,27.75,0,0,0,16.07-2.06c3.35-1.46,6.18-4.15,9.13-6.44,1.24-1,1.21-2.31,0-3.49-.52-.53-1.1-1-1.59-1.57-1.33-1.52-2.73-1.67-3.94-.07-2.81,3.72-7.21,4.56-11.14,5.9-4.87,1.66-9.55-.79-13.82-2.81-5.9-2.79-8.73-8.51-10.59-14.34-1.3-4.09-1.57-8.57-1.84-12.91-.15-2.38.86-4.81,1-7.23A21,21,0,0,1,126.91,65c3.72-5.32,8.31-9.8,15.48-10.19,4.66-.26,9.33-.89,13.31,2.44.85.71,1.82,1.26,2.69,1.93a2.63,2.63,0,0,0,4.1-.46,43.91,43.91,0,0,0,2.65-4.32c-1.9-1.28-3.71-2.52-5.54-3.72-2.93-1.91-5.94-3.62-9.58-3.65-3,0-6-.06-8.94,0a23.31,23.31,0,0,0-13.67,5.14c-6,4.6-10.53,10.42-11.92,18.19-.11.6-.83,1.09-1.26,1.63-.52-.46-1.28-.82-1.52-1.39-.88-2.09-1.62-4.24-2.35-6.38-1.68-4.92-3.26-9.86-5-14.74a3.15,3.15,0,0,0-2.18-1.58,43.38,43.38,0,0,0-6.45-.23,2,2,0,0,0-1.47,1c-1,2.52-1.8,5.11-2.72,7.65-.25.68-.71,1.28-1,1.94a14.74,14.74,0,0,0-1,2.19c-1,3.51-2,7-3,10.57A8.09,8.09,0,0,1,86.37,72.65ZM16,31.29l-1,.14V156.61c0,3.7,0,3.7,3.5,3.6.37,0,.75,0,1.12,0q81.69,0,163.39,0c1.25,0,2.49.31,3.75.37a1.36,1.36,0,0,0,1.09-.47,1.28,1.28,0,0,0-.18-1.19c-.19-.21-.76-.13-1.15-.08a27.69,27.69,0,0,1-3.24.44q-81.58,0-163.17,0c-3.78,0-3.78,0-3.78-3.76q0-60.74,0-121.48A24.08,24.08,0,0,0,16,31.29ZM62.79,133.53l.92,0a16.33,16.33,0,0,0,.35-2.17c0-2.34,0-4.69,0-7,0-.37-.33-.74-.51-1.11-.36.21-.84.34-1,.64a28.68,28.68,0,0,1-2.33,3.68,2.76,2.76,0,0,1-2.35.34c-.56-.17-.9-1.08-1.35-1.67-2.17,2.26-2.16,2.25-4.1,0-.24-.27-.91-.56-1.08-.44A1.65,1.65,0,0,0,50.6,127a2.25,2.25,0,0,1-1.93,2.76,2.23,2.23,0,0,0-1.1,1c-1,1.45-2.17.78-3.34.37.31-.78.57-1.58.92-2.34.63-1.37,1.34-2.7,1.9-4.09,0-.1-1-.92-1.27-.8-1.61.68-3.12,1.57-4.69,2.34a6.94,6.94,0,0,1-1.44.38c.15-.53.28-1.07.46-1.59s.39-1,.59-1.47l-.77-.41c-.89,1.19-2.33,2.29-2.56,3.59a30.84,30.84,0,0,0,0,7.12A2.15,2.15,0,0,0,41,135.43a10.09,10.09,0,0,1,8.49-1.91c3.14.71,4.42,0,5.17-2.67,1.67,0,1.64,0,2.78,1.75.27.43.86.67,1.3,1a9.62,9.62,0,0,0,.72-1.48c.1-.33-.13-.79,0-1.09.36-.84.83-1.63,1.26-2.44a12.3,12.3,0,0,1,1.7,2.3A10.34,10.34,0,0,1,62.79,133.53Zm69.14,0c-3.29-1.77-3.9-2.63-2.91-4.62.49-1,1.12-1.91,1.68-2.86a11.45,11.45,0,0,1-3.26,0c-2-.61-3.39.14-4.81,1.43-.95.86-2.26,1.18-2.91-.4s-1.33-1.64-2.48-.36a3,3,0,0,1-2.2.5c-.34,0-.69-.81-.9-1.31a21.82,21.82,0,0,1-.72-2.25,9.18,9.18,0,0,0-2.32,1.4c-.89,1-1.61,1.5-3,.9-1.56-.67-2.76-.13-4.06,1.24s-.67,2.89-1.09,4.28.44,2,1.58,2.1,1.91-.48,1.87-1.84a16,16,0,0,1,.31-2.47l.8,0a9.88,9.88,0,0,1,.42,1.83c.13,2,2.55,3.77,4.29,2.69,1.59-1,2.91-.62,4.42-.32,2.74.53,2.92.34,3.25-2.43.06-.49.58-.93.89-1.39.33.31.88.58,1,.94.22,1.06-.6,2.8,1.22,2.79s.71-1.86,1.13-2.8a8.5,8.5,0,0,1,1.44-1.71,10.91,10.91,0,0,1,1.39,1.51c.23.34,0,1,.26,1.28a10,10,0,0,0,2.53,2.41C130.19,134.34,131.17,133.73,131.93,133.52Zm1.91-.07a26,26,0,0,0,3.42.43,18.58,18.58,0,0,0,4-.39,1.83,1.83,0,0,0,1.19-1.2c.15-1.36-.41-3.25,1.67-3.22s1.27,1.9,1.43,3.14c0,.41.5.78.77,1.17.33-.25,1-.57.93-.73-.49-2.05.67-3.27,2-4.56.36-.36.11-1.33.14-2-.6.07-1.21.11-1.81.21s-1.29.54-1.74.35a4.6,4.6,0,0,0-6.53,3.35c-.11.5-.9,1.22-1.34,1.19s-1.06-.72-1.36-1.25.08-1.13-.17-1.5a12,12,0,0,0-1.68-1.74,10,10,0,0,0-.86,2.31A41.72,41.72,0,0,0,133.84,133.45Zm-54.5-9.76a4.5,4.5,0,0,0,.63.84c1.22,1,1.32,2.32.13,3.23-1.44,1.12-1.79-.33-2.29-1.32-.16-.32-.8-.74-1-.65-.38.2-.89.74-.85,1.06.26,1.74-.52,2.54-2.07,3.17a2.79,2.79,0,0,0-1.23,2.16c0,.4,1.13,1.08,1.83,1.23a18.94,18.94,0,0,0,3.29.09,13.7,13.7,0,0,1,3.08.14c1.18.3,2,.23,2-1.16,0-2.5-.21-5-.36-7.51C82.38,122.91,81.33,122.46,79.34,123.69Zm14.6,7.22c0-.54.09-1,.1-1.43.07-2.15-4-4.64-5.9-3.61-1.64.88-3.77,5.31-2.66,6.65.84,1,3,.95,4.6,1.28a6.43,6.43,0,0,0,1.54-.17C93.38,133.5,94.83,133.12,93.94,130.91Zm61.15.23-.55.31c.5.75.88,2,1.53,2.15a10.25,10.25,0,0,0,4.13.06c1-.16,2.21-.57,2-2.16a3.5,3.5,0,0,1,.27-1.71c.76-2.06-1.36-2.69-2-4a2,2,0,0,0-1.07.42c-.64,1-1.42,1.81-2.47.88-.49-.44-.34-1.58-.54-2.39a10.25,10.25,0,0,0-.5-1.3c-.36.27-.93.47-1.06.82-.46,1.34-1.13,2.66-.31,4.18A10,10,0,0,1,155.09,131.14ZM72,132.27a7.07,7.07,0,0,0-1.14-.69c-1.8-.63-1.62-1.81-.36-2.54a3.81,3.81,0,0,0,1.93-3.68,9.77,9.77,0,0,0-.22-1.6c-.67.19-1.6.17-2,.61-1.68,2-3.71,4-2.89,7a3.71,3.71,0,0,0,1.42,2.29A2.17,2.17,0,0,0,72,132.27Zm24.68,1a11.57,11.57,0,0,0,3.15.33c.85-.16,2.32-.91,2.28-1.28a38.32,38.32,0,0,0-1.33-6.13c0-.1-1.53-.08-1.64.18C98.23,128.51,97.53,130.71,96.64,133.28Zm-19-10.49-.46-1.13-2.22.75.5,1.35Z" transform="translate(-11 -27.53)"/><path class="cls-2" d="M14.5,27.53c-.3,3.91-.86,7.82-.86,11.72q-.11,59.28,0,118.57c0,3.73.85,4.43,4.53,3.82a13.82,13.82,0,0,1,2.23-.08H183.07a13.82,13.82,0,0,1,2.23.09c3.57.6,4.49-.13,4.49-3.65q0-62.31,0-124.6a39.77,39.77,0,0,0-.86-5.87H226v155H11v-155Z" transform="translate(-11 -27.53)"/><path class="cls-3" d="M86.37,72.65A8.09,8.09,0,0,0,87.45,71c1-3.52,2-7.06,3-10.57a14.74,14.74,0,0,1,1-2.19c.32-.66.78-1.26,1-1.94.92-2.54,1.73-5.13,2.72-7.65a2,2,0,0,1,1.47-1,43.38,43.38,0,0,1,6.45.23,3.15,3.15,0,0,1,2.18,1.58c1.78,4.88,3.36,9.82,5,14.74.73,2.14,1.47,4.29,2.35,6.38.24.57,1,.93,1.52,1.39.43-.54,1.15-1,1.26-1.63,1.39-7.77,5.91-13.59,11.92-18.19A23.31,23.31,0,0,1,141.08,47c3-.07,6,0,8.94,0,3.64,0,6.65,1.74,9.58,3.65,1.83,1.2,3.64,2.44,5.54,3.72a43.91,43.91,0,0,1-2.65,4.32,2.63,2.63,0,0,1-4.1.46c-.87-.67-1.84-1.22-2.69-1.93-4-3.33-8.65-2.7-13.31-2.44-7.17.39-11.76,4.87-15.48,10.19a21,21,0,0,0-3.49,11.26c-.1,2.42-1.11,4.85-1,7.23.27,4.34.54,8.82,1.84,12.91,1.86,5.83,4.69,11.55,10.59,14.34,4.27,2,9,4.47,13.82,2.81,3.93-1.34,8.33-2.18,11.14-5.9,1.21-1.6,2.61-1.45,3.94.07.49.56,1.07,1,1.59,1.57,1.16,1.18,1.19,2.53,0,3.49-3,2.29-5.78,5-9.13,6.44a27.75,27.75,0,0,1-16.07,2.06c-3-.54-5.82-2-8.74-3-.55-.18-1.6-.23-1.79.07-1.32,2-3.3,1.19-5.06,1.47-5,.79-5.58-2.32-6.56-5.82-1.35-4.82-3-9.55-4.75-14.23a3.17,3.17,0,0,0-2.51-1.38c-7-.11-14-.08-21,0-2.35,0-4.4,2.27-5.09,4.83-1.14,4.23-2.55,8.39-3.85,12.58-.07.21-.18.41-.25.62-.39,1.15-.45,2.78-1.24,3.31s-2.43.17-3.7.17c-.74,0-1.49,0-2.23,0-2.53-.18-2.74-.39-3.11-3.2-2.26.77-4.44,1.55-6.65,2.23a13.8,13.8,0,0,1-3.66.76c-7.6.11-15.2.1-22.8.18-1.48,0-2.13-.38-2.13-2q.1-32.94.1-65.87V50.1c0-1.8.7-2.63,2.7-2.59,5.73.11,11.49-.25,17.2.11,4,.26,8.29.71,11.94,2.26,5.44,2.31,10.59,5.51,13.49,11.1,1.58,3,3,6.18,4.46,9.26C85.25,71,85.72,71.6,86.37,72.65Zm-42.58,11h0v24.77c0,3.61,1.19,4.94,4.83,4.72,3.36-.2,6.7-.83,10.06-1.24a16.75,16.75,0,0,0,6.21-2A21,21,0,0,0,76,94.16c1-8,2.23-16.24-1.27-24.3a33.73,33.73,0,0,0-5-8.36c-3.18-3.87-7.67-5-12-6.09-3.43-.89-7.25-.38-10.89-.34-2.07,0-3.22,1-3.19,3.35C43.85,66.82,43.79,75.22,43.79,83.62Zm56,7.35v-.09c3,0,6,.1,8.92,0,2.16-.09,2.68-1.52,1.64-3.38a20.37,20.37,0,0,1-1.49-4.09c-.3-1-.37-2-.69-3-1.23-3.75-2.65-7.45-3.75-11.24S102.6,61.68,101.62,58c-.15-.58-1-1-1.45-1.47A6.65,6.65,0,0,0,98.78,58a22.73,22.73,0,0,0-.92,3c-1.32,4.19-2.71,8.35-4,12.56-1,3.43-1.88,6.9-2.84,10.34-.1.34-.43.61-.57,1A16.26,16.26,0,0,0,89.36,88c-.4,2.28.25,3,2.57,3C94.53,91,97.13,91,99.74,91Z" transform="translate(-11 -27.53)"/><path class="cls-2" d="M16,31.29a24.08,24.08,0,0,1,.32,2.79q0,60.75,0,121.48c0,3.76,0,3.76,3.78,3.76q81.59,0,163.17,0a27.69,27.69,0,0,0,3.24-.44c.39-.05,1-.13,1.15.08a1.28,1.28,0,0,1,.18,1.19,1.36,1.36,0,0,1-1.09.47c-1.26-.06-2.5-.37-3.75-.37q-81.69,0-163.39,0c-.37,0-.75,0-1.12,0-3.5.1-3.5.1-3.5-3.6V31.43Z" transform="translate(-11 -27.53)"/><path class="cls-3" d="M62.79,133.53a10.34,10.34,0,0,0-.39-2.65,12.3,12.3,0,0,0-1.7-2.3c-.43.81-.9,1.6-1.26,2.44-.14.3.09.76,0,1.09a9.62,9.62,0,0,1-.72,1.48c-.44-.32-1-.56-1.3-1-1.14-1.77-1.11-1.79-2.78-1.75-.75,2.66-2,3.38-5.17,2.67A10.09,10.09,0,0,0,41,135.43a2.15,2.15,0,0,1-3.57-1.57,30.84,30.84,0,0,1,0-7.12c.23-1.3,1.67-2.4,2.56-3.59l.77.41c-.2.49-.42,1-.59,1.47s-.31,1.06-.46,1.59a6.94,6.94,0,0,0,1.44-.38c1.57-.77,3.08-1.66,4.69-2.34.27-.12,1.31.7,1.27.8-.56,1.39-1.27,2.72-1.9,4.09-.35.76-.61,1.56-.92,2.34,1.17.41,2.35,1.08,3.34-.37a2.23,2.23,0,0,1,1.1-1A2.25,2.25,0,0,0,50.6,127a1.65,1.65,0,0,1,.68-1.22c.17-.12.84.17,1.08.44,1.94,2.23,1.93,2.24,4.1,0,.45.59.79,1.5,1.35,1.67a2.76,2.76,0,0,0,2.35-.34,28.68,28.68,0,0,0,2.33-3.68c.2-.3.68-.43,1-.64.18.37.5.74.51,1.11,0,2.34.06,4.69,0,7a16.33,16.33,0,0,1-.35,2.17Z" transform="translate(-11 -27.53)"/><path class="cls-3" d="M131.93,133.52c-.76.21-1.74.82-2.24.55a10,10,0,0,1-2.53-2.41c-.25-.29,0-.94-.26-1.28a10.91,10.91,0,0,0-1.39-1.51,8.5,8.5,0,0,0-1.44,1.71c-.42.94.76,2.79-1.13,2.8s-1-1.73-1.22-2.79c-.08-.36-.63-.63-1-.94-.31.46-.83.9-.89,1.39-.33,2.77-.51,3-3.25,2.43-1.51-.3-2.83-.65-4.42.32-1.74,1.08-4.16-.68-4.29-2.69a9.88,9.88,0,0,0-.42-1.83l-.8,0a16,16,0,0,0-.31,2.47c0,1.36-.6,2-1.87,1.84s-2-.68-1.58-2.1-.24-2.87,1.09-4.28,2.5-1.91,4.06-1.24c1.41.6,2.13.11,3-.9a9.18,9.18,0,0,1,2.32-1.4,21.82,21.82,0,0,0,.72,2.25c.21.5.56,1.28.9,1.31a3,3,0,0,0,2.2-.5c1.15-1.28,1.77-1.35,2.48.36s2,1.26,2.91.4c1.42-1.29,2.79-2,4.81-1.43a11.45,11.45,0,0,0,3.26,0c-.56.95-1.19,1.87-1.68,2.86C128,130.89,128.64,131.75,131.93,133.52Zm-20.07-1.42,1.12-.58a5.53,5.53,0,0,0,.85-1.58c0-.27-.71-1-.8-.94a4,4,0,0,0-1.74,1.34C111.09,130.73,111.64,131.5,111.86,132.1Z" transform="translate(-11 -27.53)"/><path class="cls-3" d="M133.84,133.45a41.72,41.72,0,0,1,0-4.45,10,10,0,0,1,.86-2.31,12,12,0,0,1,1.68,1.74c.25.37-.06,1.09.17,1.5s.87,1.23,1.36,1.25,1.23-.69,1.34-1.19a4.6,4.6,0,0,1,6.53-3.35c.45.19,1.15-.25,1.74-.35s1.21-.14,1.81-.21c0,.68.22,1.65-.14,2-1.31,1.29-2.47,2.51-2,4.56,0,.16-.6.48-.93.73-.27-.39-.72-.76-.77-1.17-.16-1.24.56-3.11-1.43-3.14s-1.52,1.86-1.67,3.22a1.83,1.83,0,0,1-1.19,1.2,18.58,18.58,0,0,1-4,.39A26,26,0,0,1,133.84,133.45Z" transform="translate(-11 -27.53)"/><path class="cls-3" d="M79.34,123.69c2-1.23,3-.78,3.16,1.28.15,2.5.31,5,.36,7.51,0,1.39-.78,1.46-2,1.16a13.7,13.7,0,0,0-3.08-.14,18.94,18.94,0,0,1-3.29-.09c-.7-.15-1.85-.83-1.83-1.23A2.79,2.79,0,0,1,73.93,130c1.55-.63,2.33-1.43,2.07-3.17,0-.32.47-.86.85-1.06.16-.09.8.33,1,.65.5,1,.85,2.44,2.29,1.32,1.19-.91,1.09-2.18-.13-3.23A4.5,4.5,0,0,1,79.34,123.69Z" transform="translate(-11 -27.53)"/><path class="cls-3" d="M93.94,130.91c.89,2.21-.56,2.59-2.32,2.72a6.43,6.43,0,0,1-1.54.17c-1.59-.33-3.76-.27-4.6-1.28-1.11-1.34,1-5.77,2.66-6.65,1.9-1,6,1.46,5.9,3.61C94,129.93,94,130.37,93.94,130.91Z" transform="translate(-11 -27.53)"/><path class="cls-3" d="M155.09,131.14a10,10,0,0,0-.62-2.79c-.82-1.52-.15-2.84.31-4.18.13-.35.7-.55,1.06-.82a10.25,10.25,0,0,1,.5,1.3c.2.81,0,1.95.54,2.39,1.05.93,1.83.07,2.47-.88a2,2,0,0,1,1.07-.42c.65,1.36,2.77,2,2,4a3.5,3.5,0,0,0-.27,1.71c.25,1.59-.92,2-2,2.16a10.25,10.25,0,0,1-4.13-.06c-.65-.18-1-1.4-1.53-2.15Z" transform="translate(-11 -27.53)"/><path class="cls-3" d="M72,132.27a2.17,2.17,0,0,1-3.23,1.42,3.71,3.71,0,0,1-1.42-2.29c-.82-3,1.21-5,2.89-7,.37-.44,1.3-.42,2-.61a9.77,9.77,0,0,1,.22,1.6A3.81,3.81,0,0,1,70.46,129c-1.26.73-1.44,1.91.36,2.54A7.07,7.07,0,0,1,72,132.27Z" transform="translate(-11 -27.53)"/><path class="cls-3" d="M96.64,133.28c.89-2.57,1.59-4.77,2.46-6.9.11-.26,1.61-.28,1.64-.18a38.32,38.32,0,0,1,1.33,6.13c0,.37-1.43,1.12-2.28,1.28A11.57,11.57,0,0,1,96.64,133.28Z" transform="translate(-11 -27.53)"/><path class="cls-2" d="M77.64,122.79l-2.18,1-.5-1.35,2.22-.75Z" transform="translate(-11 -27.53)"/><path class="cls-1" d="M43.79,83.62c0-8.4.06-16.8,0-25.2,0-2.36,1.12-3.33,3.19-3.35,3.64,0,7.46-.55,10.89.34,4.28,1.11,8.77,2.22,12,6.09a33.73,33.73,0,0,1,5,8.36c3.5,8.06,2.31,16.35,1.27,24.3A21,21,0,0,1,64.9,109.84a16.75,16.75,0,0,1-6.21,2c-3.36.41-6.7,1-10.06,1.24-3.64.22-4.82-1.11-4.83-4.72V83.62Z" transform="translate(-11 -27.53)"/><path class="cls-1" d="M99.74,91c-2.61,0-5.21,0-7.81,0-2.32,0-3-.73-2.57-3a16.26,16.26,0,0,1,1.13-3.1c.14-.34.47-.61.57-1,1-3.44,1.82-6.91,2.84-10.34,1.25-4.21,2.64-8.37,4-12.56a22.73,22.73,0,0,1,.92-3,6.65,6.65,0,0,1,1.39-1.53c.5.48,1.3.89,1.45,1.47,1,3.7,1.69,7.47,2.75,11.14s2.52,7.49,3.75,11.24c.32,1,.39,2,.69,3a20.37,20.37,0,0,0,1.49,4.09c1,1.86.52,3.29-1.64,3.38-3,.13-6,0-8.92,0Z" transform="translate(-11 -27.53)"/><path class="cls-1" d="M111.86,132.1c-.22-.6-.77-1.37-.57-1.76A4,4,0,0,1,113,129c.09-.05.85.67.8.94a5.53,5.53,0,0,1-.85,1.58Z" transform="translate(-11 -27.53)"/></svg>