<svg id="Layer_1" data-name="Layer 1" xmlns="http://www.w3.org/2000/svg" viewBox="0 0 190.47 147.96"><defs><style>.cls-1{fill:#ff22fc;}.cls-2{fill:#32ffdb;}</style></defs><rect y="123.8" width="138.71" height="12.08"/><rect class="cls-1" width="138.71" height="37.2"/><rect class="cls-2" y="37.32" width="138.71" height="37.2"/><rect y="74.65" width="138.71" height="37.2"/><path class="cls-1" d="M148.44,27.32h4.95V28h-4.95Zm.24-2.46h4.95v.7h-4.95Zm1.38-2.19h.64l-.95,7.79h-.65Zm2.23,0h.64l-1,7.79h-.65Z" transform="translate(-7.65 -11.86)"/><path class="cls-1" d="M155.84,24.69l1.69-.05h3.39v.8h-5.08Zm1.66-.55a2.14,2.14,0,0,1,2.35-2.36,4.28,4.28,0,0,1,1.68.34l-.22.74a3.25,3.25,0,0,0-1.36-.28c-1,0-1.46.59-1.46,1.53v6.35h-1Z" transform="translate(-7.65 -11.86)"/><path class="cls-1" d="M163,24.69l1.69-.05h3.39v.8H163Zm1.66-.55a2.14,2.14,0,0,1,2.35-2.36,4.28,4.28,0,0,1,1.68.34l-.23.74a3.18,3.18,0,0,0-1.35-.28c-1,0-1.46.59-1.46,1.53v6.35h-1Z" transform="translate(-7.65 -11.86)"/><path class="cls-1" d="M169.88,29.88c2.59-2.29,4-3.64,4-4.91,0-.87-.53-1.49-1.65-1.49a2.63,2.63,0,0,0-1.84.92l-.57-.57a3.42,3.42,0,0,1,2.53-1.16,2.23,2.23,0,0,1,2.49,2.25c0,1.44-1.44,2.87-3.51,4.75.48,0,1-.06,1.42-.06h2.51v.85h-5.38Z" transform="translate(-7.65 -11.86)"/><path class="cls-1" d="M177.08,29.88c2.59-2.29,4-3.64,4-4.91,0-.87-.53-1.49-1.65-1.49a2.63,2.63,0,0,0-1.84.92l-.57-.57a3.42,3.42,0,0,1,2.53-1.16A2.23,2.23,0,0,1,182,24.92c0,1.44-1.44,2.87-3.51,4.75.48,0,1-.06,1.43-.06h2.5v.85h-5.38Z" transform="translate(-7.65 -11.86)"/><path class="cls-1" d="M184.64,24.69l1.69-.05h3.39v.8h-5.08Zm1.66-.55a2.14,2.14,0,0,1,2.35-2.36,4.28,4.28,0,0,1,1.68.34l-.23.74a3.21,3.21,0,0,0-1.35-.28c-1,0-1.46.59-1.46,1.53v6.35h-1Z" transform="translate(-7.65 -11.86)"/><path class="cls-1" d="M191.56,27.56a3,3,0,0,1,3.25-3.07,3,3,0,0,1,2.12.85l-.49.64a2.39,2.39,0,0,0-1.59-.66,2.14,2.14,0,0,0-2.27,2.24,2.12,2.12,0,0,0,2.24,2.22,2.76,2.76,0,0,0,1.8-.73l.45.65a3.52,3.52,0,0,1-2.32.91A2.94,2.94,0,0,1,191.56,27.56Z" transform="translate(-7.65 -11.86)"/><path class="cls-2" d="M149.49,64.65h4.94v.69h-4.94Zm.24-2.46h4.94v.69h-4.94Zm1.38-2.2h.63l-.94,7.8h-.65Zm2.23,0H154l-.94,7.8h-.65Z" transform="translate(-7.65 -11.86)"/><path class="cls-2" d="M156.33,66.85l.5-.64a3.1,3.1,0,0,0,2.2.89c1,0,1.82-.53,1.82-1.39s-.77-1.52-2.77-1.52v-.75c1.81,0,2.51-.63,2.51-1.43s-.64-1.2-1.56-1.2a2.89,2.89,0,0,0-1.89.77l-.52-.63a3.7,3.7,0,0,1,2.44-1c1.44,0,2.53.71,2.53,1.95,0,.92-.68,1.51-1.63,1.82v.05a2.1,2.1,0,0,1,1.9,1.94c0,1.35-1.25,2.18-2.77,2.18A3.72,3.72,0,0,1,156.33,66.85Z" transform="translate(-7.65 -11.86)"/><path class="cls-2" d="M163.72,67.2c2.59-2.29,4-3.63,4-4.9,0-.88-.53-1.49-1.66-1.49a2.63,2.63,0,0,0-1.83.91l-.58-.56A3.41,3.41,0,0,1,166.19,60a2.23,2.23,0,0,1,2.5,2.26c0,1.44-1.44,2.86-3.52,4.75.48,0,1-.06,1.43-.06h2.51v.85h-5.39Z" transform="translate(-7.65 -11.86)"/><path class="cls-2" d="M171.28,62,173,62h3.4v.8h-5.09Zm1.67-.55a2.13,2.13,0,0,1,2.35-2.36,4.3,4.3,0,0,1,1.68.33l-.23.74a3.21,3.21,0,0,0-1.36-.27c-1,0-1.46.59-1.46,1.52v6.36h-1Z" transform="translate(-7.65 -11.86)"/><path class="cls-2" d="M178.48,62l1.69-.06h3.4v.8h-5.09Zm1.67-.55a2.13,2.13,0,0,1,2.35-2.36,4.3,4.3,0,0,1,1.68.33l-.23.74a3.21,3.21,0,0,0-1.36-.27c-1,0-1.46.59-1.46,1.52v6.36h-1Z" transform="translate(-7.65 -11.86)"/><path class="cls-2" d="M185.16,64.89a2.8,2.8,0,0,1,2.64-3.07,2.47,2.47,0,0,1,1.75.74h0l-.05-1.07V59.25h1v8.54h-.82l-.09-.77h0a2.82,2.82,0,0,1-1.91.91C186.17,67.93,185.16,66.83,185.16,64.89Zm4.37,1.34v-2.9a2.17,2.17,0,0,0-1.52-.67,2,2,0,0,0-1.83,2.21c0,1.4.65,2.22,1.72,2.22A2.2,2.2,0,0,0,189.53,66.23Z" transform="translate(-7.65 -11.86)"/><path class="cls-2" d="M193.68,67.14h0l-.1.65h-.79V59.25h1v2.33l0,1.12h0a2.86,2.86,0,0,1,2-.88c1.57,0,2.42,1.16,2.42,3,0,2-1.25,3.15-2.63,3.15A2.9,2.9,0,0,1,193.68,67.14Zm3.42-2.35c0-1.28-.48-2.13-1.64-2.13a2.44,2.44,0,0,0-1.7.86v2.9a2.42,2.42,0,0,0,1.57.67C196.33,67.09,197.1,66.23,197.1,64.79Z" transform="translate(-7.65 -11.86)"/><path d="M149.49,100.94h4.94v.7h-4.94Zm.24-2.45h4.94v.69h-4.94Zm1.38-2.2h.63l-.94,7.8h-.65Zm2.23,0H154l-.94,7.8h-.65Z" transform="translate(-7.65 -11.86)"/><path d="M156.5,100.24c0-2.57,1-3.95,2.74-3.95s2.75,1.38,2.75,3.95-1,4-2.75,4S156.5,102.78,156.5,100.24Zm4.57,0c0-2.2-.76-3.15-1.83-3.15s-1.82,1-1.82,3.15.76,3.19,1.82,3.19S161.07,102.43,161.07,100.24Zm-2.57-.09a.75.75,0,1,1,1.49,0,.75.75,0,1,1-1.49,0Z" transform="translate(-7.65 -11.86)"/><path d="M163.7,100.24c0-2.57,1-3.95,2.74-3.95s2.75,1.38,2.75,3.95-1,4-2.75,4S163.7,102.78,163.7,100.24Zm4.57,0c0-2.2-.76-3.15-1.83-3.15s-1.82,1-1.82,3.15.76,3.19,1.82,3.19S168.27,102.43,168.27,100.24Zm-2.57-.09a.75.75,0,1,1,1.49,0,.75.75,0,1,1-1.49,0Z" transform="translate(-7.65 -11.86)"/><path d="M170.9,100.24c0-2.57,1-3.95,2.74-3.95s2.75,1.38,2.75,3.95-1,4-2.75,4S170.9,102.78,170.9,100.24Zm4.57,0c0-2.2-.76-3.15-1.83-3.15s-1.82,1-1.82,3.15.76,3.19,1.82,3.19S175.47,102.43,175.47,100.24Zm-2.57-.09a.75.75,0,1,1,1.49,0,.75.75,0,1,1-1.49,0Z" transform="translate(-7.65 -11.86)"/><path class="cls-1" d="M9.25,144.49l.6-.69a3.35,3.35,0,0,0,2.31,1c1.08,0,1.7-.52,1.7-1.24s-.61-1.08-1.4-1.41l-1.14-.51a2.23,2.23,0,0,1-1.69-2,2.29,2.29,0,0,1,2.57-2.09,3.47,3.47,0,0,1,2.43,1l-.53.65a2.76,2.76,0,0,0-1.93-.73c-.91,0-1.52.43-1.52,1.14s.73,1,1.4,1.29l1.1.49c1,.39,1.74.94,1.74,2.1s-1.05,2.25-2.78,2.25A4,4,0,0,1,9.25,144.49Z" transform="translate(-7.65 -11.86)"/><path class="cls-1" d="M16.37,142.61a2.88,2.88,0,1,1,2.88,3A2.85,2.85,0,0,1,16.37,142.61Zm4.74,0c0-1.34-.75-2.24-1.86-2.24s-1.86.9-1.86,2.24.74,2.22,1.86,2.22S21.11,143.94,21.11,142.61Z" transform="translate(-7.65 -11.86)"/><path class="cls-1" d="M23.77,143.3v-3.62h1v3.49c0,1.09.38,1.62,1.34,1.62a2.29,2.29,0,0,0,1.81-1.07v-4h1v5.83h-.83l-.08-1H28a2.83,2.83,0,0,1-2.17,1.17C24.41,145.66,23.77,144.84,23.77,143.3Z" transform="translate(-7.65 -11.86)"/><path class="cls-1" d="M31.79,139.68h.83l.09,1.38h0a3.06,3.06,0,0,1,2.6-1.52,2.45,2.45,0,0,1,1.15.24l-.23.85a3,3,0,0,0-1.08-.19,2.74,2.74,0,0,0-2.4,1.67v3.4h-1Z" transform="translate(-7.65 -11.86)"/><path class="cls-1" d="M38.21,142.61a3,3,0,0,1,3.25-3.07,2.94,2.94,0,0,1,2.12.85l-.49.64a2.39,2.39,0,0,0-1.59-.66,2.14,2.14,0,0,0-2.27,2.24,2.12,2.12,0,0,0,2.24,2.22,2.81,2.81,0,0,0,1.8-.73l.44.64a3.44,3.44,0,0,1-2.31.92A2.94,2.94,0,0,1,38.21,142.61Z" transform="translate(-7.65 -11.86)"/><path class="cls-1" d="M45.27,142.58a2.92,2.92,0,0,1,3-3,2.5,2.5,0,0,1,2.66,2.73,3.28,3.28,0,0,1,0,.6H45.93v-.76h4.34l-.25.27c0-1.38-.69-2.06-1.76-2.06a2,2,0,0,0-2,2.26,2.11,2.11,0,0,0,2.28,2.28,3.12,3.12,0,0,0,1.77-.55l.36.65a4,4,0,0,1-2.25.7A3,3,0,0,1,45.27,142.58Z" transform="translate(-7.65 -11.86)"/><path class="cls-1" d="M59.63,141.58c0-2.53,1.47-4.08,3.53-4.08a2.94,2.94,0,0,1,2.15,1l-.57.64a2.08,2.08,0,0,0-1.58-.71c-1.5,0-2.49,1.21-2.49,3.16s1,3.22,2.49,3.22a2.24,2.24,0,0,0,1.76-.87l.57.62a3,3,0,0,1-2.43,1.14C61.12,145.66,59.63,144.14,59.63,141.58Z" transform="translate(-7.65 -11.86)"/><path class="cls-1" d="M66.77,142.61a2.88,2.88,0,1,1,2.88,3A2.85,2.85,0,0,1,66.77,142.61Zm4.74,0c0-1.34-.75-2.24-1.86-2.24s-1.86.9-1.86,2.24.74,2.22,1.86,2.22S71.51,143.94,71.51,142.61Z" transform="translate(-7.65 -11.86)"/><path class="cls-1" d="M74,142.61a2.8,2.8,0,0,1,2.64-3.07,2.5,2.5,0,0,1,1.75.74h0l0-1.07V137h1v8.54h-.82l-.08-.77h0a2.79,2.79,0,0,1-1.91.92C75,145.66,74,144.55,74,142.61ZM78.33,144v-2.9a2.14,2.14,0,0,0-1.52-.67A2,2,0,0,0,75,142.6c0,1.39.65,2.22,1.71,2.22A2.18,2.18,0,0,0,78.33,144Z" transform="translate(-7.65 -11.86)"/><path class="cls-1" d="M81.26,142.58a2.93,2.93,0,0,1,3-3,2.5,2.5,0,0,1,2.66,2.73,3.28,3.28,0,0,1-.05.6H81.92v-.76h4.35l-.26.27c0-1.38-.68-2.06-1.75-2.06a2,2,0,0,0-2,2.26,2.11,2.11,0,0,0,2.28,2.28,3.15,3.15,0,0,0,1.77-.55l.36.65a4,4,0,0,1-2.25.7A3,3,0,0,1,81.26,142.58Z" transform="translate(-7.65 -11.86)"/><path class="cls-1" d="M95.35,137.64h1.08l1.26,4.25c.28.92.47,1.68.76,2.59h0c.28-.91.49-1.67.75-2.59l1.26-4.25h1l-2.49,7.87H97.87Z" transform="translate(-7.65 -11.86)"/><path class="cls-1" d="M103,144c0-1.31,1.22-1.94,4.23-2.18a1.38,1.38,0,0,0-1.54-1.47,4,4,0,0,0-2,.7l-.4-.67a5.13,5.13,0,0,1,2.6-.84,2.17,2.17,0,0,1,2.38,2.4v3.57h-.83l-.08-.79h0a4,4,0,0,1-2.29.94A1.77,1.77,0,0,1,103,144Zm4.23,0v-1.51c-2.49.19-3.25.68-3.25,1.45s.6.92,1.27.92A3.18,3.18,0,0,0,107.24,144Z" transform="translate(-7.65 -11.86)"/><path class="cls-1" d="M111,139.68h.83l.09,1.38h0a3.06,3.06,0,0,1,2.6-1.52,2.45,2.45,0,0,1,1.15.24l-.23.85a3,3,0,0,0-1.08-.19,2.74,2.74,0,0,0-2.4,1.67v3.4h-1Z" transform="translate(-7.65 -11.86)"/><path class="cls-1" d="M120.23,140.49h-2.7v-.81h3.69v5.83h-1Zm-.4-2.8a.79.79,0,0,1,1.58,0,.79.79,0,0,1-1.58,0Z" transform="translate(-7.65 -11.86)"/><path class="cls-1" d="M124.61,144c0-1.31,1.22-1.94,4.23-2.18a1.39,1.39,0,0,0-1.55-1.47,4,4,0,0,0-2,.7l-.4-.67a5.13,5.13,0,0,1,2.6-.84,2.17,2.17,0,0,1,2.38,2.4v3.57H129l-.08-.79h0a4,4,0,0,1-2.29.94A1.77,1.77,0,0,1,124.61,144Zm4.23,0v-1.51c-2.49.19-3.25.68-3.25,1.45s.6.92,1.27.92A3.18,3.18,0,0,0,128.84,144Z" transform="translate(-7.65 -11.86)"/><path class="cls-1" d="M132.89,144.86h0l-.09.65H132V137h1v2.33l-.05,1.13h0a2.87,2.87,0,0,1,2-.89c1.57,0,2.43,1.16,2.43,3,0,2-1.25,3.16-2.63,3.16A2.84,2.84,0,0,1,132.89,144.86Zm3.42-2.35c0-1.28-.48-2.13-1.65-2.13a2.48,2.48,0,0,0-1.7.86v2.9a2.41,2.41,0,0,0,1.57.68C135.54,144.82,136.31,144,136.31,142.51Z" transform="translate(-7.65 -11.86)"/><path class="cls-1" d="M141,143.56v-5.78h-2.06V137H142v6.66a1,1,0,0,0,1.15,1.2,2.68,2.68,0,0,0,1.09-.27l.25.75a3.5,3.5,0,0,1-1.56.35C141.68,145.66,141,144.94,141,143.56Z" transform="translate(-7.65 -11.86)"/><path class="cls-1" d="M146.06,142.58a2.93,2.93,0,0,1,3-3,2.5,2.5,0,0,1,2.66,2.73,3.28,3.28,0,0,1,0,.6h-4.93v-.76h4.35l-.26.27c0-1.38-.68-2.06-1.75-2.06a2,2,0,0,0-2,2.26,2.11,2.11,0,0,0,2.28,2.28,3.15,3.15,0,0,0,1.77-.55l.36.65a4,4,0,0,1-2.25.7A3,3,0,0,1,146.06,142.58Z" transform="translate(-7.65 -11.86)"/><rect y="135.88" width="138.71" height="12.08"/><path class="cls-2" d="M9.25,156.58l.6-.7a3.31,3.31,0,0,0,2.31,1c1.08,0,1.7-.52,1.7-1.23s-.61-1.08-1.4-1.42l-1.14-.5a2.26,2.26,0,0,1-1.69-2,2.29,2.29,0,0,1,2.57-2.09,3.47,3.47,0,0,1,2.43,1l-.53.65a2.81,2.81,0,0,0-1.93-.73c-.91,0-1.52.43-1.52,1.14s.73,1,1.4,1.3l1.1.49c1,.38,1.74.93,1.74,2.1s-1.05,2.24-2.78,2.24A4,4,0,0,1,9.25,156.58Z" transform="translate(-7.65 -11.86)"/><path class="cls-2" d="M16.37,154.69a2.88,2.88,0,1,1,2.88,3.05A2.86,2.86,0,0,1,16.37,154.69Zm4.74,0c0-1.34-.75-2.24-1.86-2.24s-1.86.9-1.86,2.24.74,2.22,1.86,2.22S21.11,156,21.11,154.69Z" transform="translate(-7.65 -11.86)"/><path class="cls-2" d="M23.77,155.39v-3.62h1v3.49c0,1.09.38,1.62,1.34,1.62a2.32,2.32,0,0,0,1.81-1.07v-4h1v5.82h-.83l-.08-1H28a2.85,2.85,0,0,1-2.17,1.16C24.41,157.74,23.77,156.92,23.77,155.39Z" transform="translate(-7.65 -11.86)"/><path class="cls-2" d="M31.79,151.77h.83l.09,1.38h0a3.07,3.07,0,0,1,2.6-1.53,2.45,2.45,0,0,1,1.15.24l-.23.85a3,3,0,0,0-1.08-.19,2.74,2.74,0,0,0-2.4,1.67v3.4h-1Z" transform="translate(-7.65 -11.86)"/><path class="cls-2" d="M38.21,154.69a3,3,0,0,1,3.25-3.07,3,3,0,0,1,2.12.85l-.49.64a2.39,2.39,0,0,0-1.59-.66,2.14,2.14,0,0,0-2.27,2.24,2.12,2.12,0,0,0,2.24,2.22,2.76,2.76,0,0,0,1.8-.73l.44.65a3.48,3.48,0,0,1-2.31.91A2.94,2.94,0,0,1,38.21,154.69Z" transform="translate(-7.65 -11.86)"/><path class="cls-2" d="M45.27,154.67a2.93,2.93,0,0,1,3-3,2.51,2.51,0,0,1,2.66,2.74,3.45,3.45,0,0,1,0,.6H45.93v-.77h4.34l-.25.27c0-1.38-.69-2.06-1.76-2.06a2.05,2.05,0,0,0-2,2.27A2.12,2.12,0,0,0,48.53,157a3.2,3.2,0,0,0,1.77-.55l.36.64a3.93,3.93,0,0,1-2.25.7A3,3,0,0,1,45.27,154.67Z" transform="translate(-7.65 -11.86)"/><path class="cls-2" d="M59.63,153.66c0-2.53,1.47-4.08,3.53-4.08a2.94,2.94,0,0,1,2.15,1l-.57.64a2.11,2.11,0,0,0-1.58-.71c-1.5,0-2.49,1.21-2.49,3.17s1,3.21,2.49,3.21a2.26,2.26,0,0,0,1.76-.86l.57.61a3,3,0,0,1-2.43,1.14C61.12,157.74,59.63,156.23,59.63,153.66Z" transform="translate(-7.65 -11.86)"/><path class="cls-2" d="M66.77,154.69a2.88,2.88,0,1,1,2.88,3.05A2.86,2.86,0,0,1,66.77,154.69Zm4.74,0c0-1.34-.75-2.24-1.86-2.24s-1.86.9-1.86,2.24.74,2.22,1.86,2.22S71.51,156,71.51,154.69Z" transform="translate(-7.65 -11.86)"/><path class="cls-2" d="M74,154.69a2.81,2.81,0,0,1,2.64-3.07,2.51,2.51,0,0,1,1.75.75h0l0-1.07v-2.24h1v8.53h-.82l-.08-.76h0a2.82,2.82,0,0,1-1.91.91C75,157.74,74,156.64,74,154.69ZM78.33,156v-2.91a2.14,2.14,0,0,0-1.52-.67A2,2,0,0,0,75,154.68c0,1.39.65,2.22,1.71,2.22A2.2,2.2,0,0,0,78.33,156Z" transform="translate(-7.65 -11.86)"/><path class="cls-2" d="M81.26,154.67a2.93,2.93,0,0,1,3-3,2.51,2.51,0,0,1,2.66,2.74,3.45,3.45,0,0,1-.05.6H81.92v-.77h4.35l-.26.27c0-1.38-.68-2.06-1.75-2.06a2.05,2.05,0,0,0-2,2.27A2.12,2.12,0,0,0,84.53,157a3.22,3.22,0,0,0,1.77-.55l.36.64a3.93,3.93,0,0,1-2.25.7A3,3,0,0,1,81.26,154.67Z" transform="translate(-7.65 -11.86)"/><path class="cls-2" d="M95.35,149.73h1.08L97.69,154c.28.93.47,1.68.76,2.59h0c.28-.91.49-1.66.75-2.59l1.26-4.24h1l-2.49,7.86H97.87Z" transform="translate(-7.65 -11.86)"/><path class="cls-2" d="M103,156.08c0-1.3,1.22-1.94,4.23-2.18a1.38,1.38,0,0,0-1.54-1.46,4.1,4.1,0,0,0-2,.69l-.4-.67a5.13,5.13,0,0,1,2.6-.84,2.17,2.17,0,0,1,2.38,2.4v3.57h-.83l-.08-.79h0a3.91,3.91,0,0,1-2.29.94A1.77,1.77,0,0,1,103,156.08Zm4.23,0v-1.51c-2.49.19-3.25.68-3.25,1.45s.6.93,1.27.93A3.2,3.2,0,0,0,107.24,156.07Z" transform="translate(-7.65 -11.86)"/><path class="cls-2" d="M111,151.77h.83l.09,1.38h0a3.07,3.07,0,0,1,2.6-1.53,2.45,2.45,0,0,1,1.15.24l-.23.85a3,3,0,0,0-1.08-.19,2.74,2.74,0,0,0-2.4,1.67v3.4h-1Z" transform="translate(-7.65 -11.86)"/><path class="cls-2" d="M120.23,152.57h-2.7v-.8h3.69v5.82h-1Zm-.4-2.79a.79.79,0,0,1,1.58,0,.79.79,0,0,1-1.58,0Z" transform="translate(-7.65 -11.86)"/><path class="cls-2" d="M124.61,156.08c0-1.3,1.22-1.94,4.23-2.18a1.38,1.38,0,0,0-1.55-1.46,4.07,4.07,0,0,0-2,.69l-.4-.67a5.13,5.13,0,0,1,2.6-.84,2.17,2.17,0,0,1,2.38,2.4v3.57H129l-.08-.79h0a3.91,3.91,0,0,1-2.29.94A1.77,1.77,0,0,1,124.61,156.08Zm4.23,0v-1.51c-2.49.19-3.25.68-3.25,1.45s.6.93,1.27.93A3.2,3.2,0,0,0,128.84,156.07Z" transform="translate(-7.65 -11.86)"/><path class="cls-2" d="M132.89,157h0l-.09.64H132v-8.53h1v2.32l-.05,1.13h0a2.87,2.87,0,0,1,2-.89c1.57,0,2.43,1.17,2.43,3,0,2-1.25,3.16-2.63,3.16A2.87,2.87,0,0,1,132.89,157Zm3.42-2.35c0-1.29-.48-2.14-1.65-2.14a2.49,2.49,0,0,0-1.7.87v2.9a2.44,2.44,0,0,0,1.57.67C135.54,156.9,136.31,156,136.31,154.6Z" transform="translate(-7.65 -11.86)"/><path class="cls-2" d="M141,155.64v-5.78h-2.06v-.8H142v6.65a1,1,0,0,0,1.15,1.2,2.65,2.65,0,0,0,1.09-.26l.25.74a3.5,3.5,0,0,1-1.56.35C141.68,157.74,141,157,141,155.64Z" transform="translate(-7.65 -11.86)"/><path class="cls-2" d="M146.06,154.67a2.93,2.93,0,0,1,3-3,2.51,2.51,0,0,1,2.66,2.74,3.45,3.45,0,0,1,0,.6h-4.93v-.77h4.35l-.26.27c0-1.38-.68-2.06-1.75-2.06a2.05,2.05,0,0,0-2,2.27,2.12,2.12,0,0,0,2.28,2.28,3.22,3.22,0,0,0,1.77-.55l.36.64a3.93,3.93,0,0,1-2.25.7A3,3,0,0,1,146.06,154.67Z" transform="translate(-7.65 -11.86)"/></svg>